<?xml version="1.0" encoding="utf-8"?>
<!-- Generator: Adobe Illustrator 26.3.1, SVG Export Plug-In . SVG Version: 6.00 Build 0)  -->
<svg version="1.1" id="Capa_1" xmlns="http://www.w3.org/2000/svg" xmlns:xlink="http://www.w3.org/1999/xlink" x="0px" y="0px"
	 viewBox="0 0 494.6 494.6" style="enable-background:new 0 0 494.6 494.6;" xml:space="preserve">
<style type="text/css">
	.st0{fill:url(#SVGID_1_);}
	.st1{fill:#DD375E;}
	.st2{fill:#046633;}
	.st3{fill:#393D62;}
	.st4{fill:#71C758;}
	.st5{enable-background:new    ;}
	.st6{fill:#FFFFFF;}
	.st7{fill:#02982E;}
	.st8{opacity:0.1;fill:#231A58;}
	.st9{opacity:0.4;fill:#231A58;enable-background:new    ;}
</style>
<g>
	<g id="OBJECTS">
		
			<radialGradient id="SVGID_1_" cx="232.6554" cy="243.2745" r="247.3" gradientTransform="matrix(1.0041 0 0 -1.0041 14.7905 492.7089)" gradientUnits="userSpaceOnUse">
			<stop  offset="4.000000e-02" style="stop-color:#231A58"/>
			<stop  offset="0.71" style="stop-color:#231A58"/>
			<stop  offset="0.81" style="stop-color:#231A58"/>
			<stop  offset="1" style="stop-color:#2B1A58"/>
		</radialGradient>
		<path class="st0" d="M72.5,72.5c96.6-96.6,253.2-96.7,349.7-0.2S518.6,325.4,422,422s-253.2,96.7-349.7,0.2S-24.1,169.2,72.5,72.5
			z"/>
		<path class="st1" d="M244.6,17.6c-127.2,1.6-229,106-227.4,233.1s106,229,233.1,227.4s229-106,227.4-233.1S371.8,16.1,244.6,17.6z
			 M249.5,411.6C159.1,412.7,84.9,340.4,83.8,250S155,85.4,245.4,84.2c90.4-1.1,164.6,71.2,165.7,161.6l0,0
			C412.3,336.3,339.9,410.5,249.5,411.6L249.5,411.6z"/>
		<path class="st2" d="M361.8,130.7L408.3,83c-43.6-42.8-102.6-66.4-163.7-65.4l0.8,66.6C288.8,83.6,330.7,100.4,361.8,130.7z"/>
		<path class="st3" d="M184.2,26.5l18,64.1c5.1-1.5,10.3-2.7,15.6-3.7c4.9-0.9,9.8-1.5,14.6-2l-5.6-66.4c-7,0.6-14,1.6-21,2.9
			C198.5,22.8,191.3,24.5,184.2,26.5z"/>
		<path class="st1" d="M147.8,40.3l28.5,60.2c4.8-2.3,9.7-4.4,14.8-6.3c4.7-1.7,9.4-3.2,14.1-4.4l-16.8-64.5
			c-6.8,1.8-13.5,3.9-20.2,6.4C161.2,34.2,154.4,37.1,147.8,40.3z"/>
		<path class="st3" d="M114.3,60l38.3,54.5c4.3-3.1,8.8-6,13.5-8.7c4.3-2.5,8.7-4.7,13.1-6.7l-27.4-60.7c-6.4,2.9-12.7,6.1-18.9,9.7
			C126.5,51.8,120.3,55.8,114.3,60z"/>
		<path class="st1" d="M84.5,85.2l46.9,47.3c3.8-3.8,7.7-7.4,11.9-10.8c3.8-3.2,7.8-6.1,11.8-8.8l-37.2-55.3
			c-5.8,4-11.5,8.2-17,12.7C95.2,75,89.7,80,84.5,85.2z"/>
		<path class="st3" d="M59.4,115l54.2,38.7c3.1-4.3,6.3-8.6,9.9-12.7c3.2-3.8,6.7-7.3,10.2-10.7l-46-48.2c-5,4.9-9.9,10-14.6,15.4
			C68.2,103.2,63.7,109,59.4,115z"/>
		<path class="st1" d="M39.7,148.5l60,29c2.3-4.8,4.8-9.5,7.6-14.2c2.6-4.3,5.3-8.3,8.2-12.3L62,111.4c-4.1,5.6-8.1,11.5-11.8,17.6
			C46.4,135.4,42.9,141.9,39.7,148.5z"/>
		<path class="st3" d="M25.9,185l64,18.5c1.4-5.1,3.1-10.2,5.1-15.2c1.8-4.6,3.8-9.1,6-13.5l-59.4-30.2c-3.1,6.3-6,12.7-8.7,19.4
			C30.3,170.9,27.9,177.9,25.9,185z"/>
		<path class="st1" d="M18.5,223.2l66.2,7.5c0.6-5.3,1.4-10.6,2.5-15.9c1-4.9,2.2-9.6,3.7-14.3l-63.6-19.7c-2,6.7-3.8,13.6-5.3,20.6
			C20.4,208.6,19.3,215.9,18.5,223.2z"/>
		<path class="st3" d="M17.6,262.1l66.5-3.8c-0.3-5.3-0.4-10.7-0.2-16.1c0.2-5,0.6-9.9,1.2-14.7L19,218.8c-0.9,7-1.4,14-1.7,21.2
			C17,247.4,17.1,254.8,17.6,262.1z"/>
		<path class="st1" d="M23.3,300.6l64.9-14.9c-1.2-5.2-2.2-10.4-2.9-15.8c-0.7-4.9-1.1-9.8-1.3-14.7l-66.6,2.5
			c0.3,7,0.9,14.1,1.9,21.1C20.3,286.2,21.6,293.5,23.3,300.6z"/>
		<path class="st3" d="M35.4,337.6L96.8,312c-2.1-4.9-3.9-9.9-5.6-15.1c-1.5-4.8-2.7-9.5-3.8-14.3l-65.2,13.7
			c1.5,6.9,3.3,13.7,5.4,20.5C30,324,32.5,330.9,35.4,337.6z"/>
		<path class="st1" d="M53.5,372.1l56.3-35.6c-2.9-4.5-5.5-9.1-8-13.9c-2.3-4.4-4.3-8.9-6.1-13.4l-62,24.5c2.6,6.5,5.5,13,8.8,19.3
			C45.9,359.5,49.6,365.9,53.5,372.1z"/>
		<path class="st3" d="M77.2,403l49.5-44.6c-3.6-3.9-7-8-10.3-12.4c-3-4-5.7-8.1-8.3-12.2l-57,34.6c3.7,6,7.6,11.8,11.9,17.6
			C67.6,391.9,72.3,397.6,77.2,403z"/>
		<path class="st1" d="M105.8,429.5l41.2-52.3c-4.2-3.3-8.3-6.8-12.2-10.5c-3.6-3.4-7-7-10.2-10.6l-50.3,43.7
			c4.6,5.3,9.5,10.4,14.7,15.3C94.4,420.1,100,425,105.8,429.5z"/>
		<path class="st3" d="M138.4,450.8l31.8-58.5c-4.7-2.5-9.3-5.2-13.8-8.3c-4.1-2.8-8.1-5.7-11.9-8.8l-42.2,51.5
			c5.5,4.4,11.1,8.6,17.1,12.6C125.6,443.5,131.9,447.3,138.4,450.8z"/>
		<path class="st1" d="M174.1,466.2l21.5-63c-5-1.7-10-3.6-15-5.8c-4.5-2-8.9-4.3-13.2-6.6l-33,57.9c6.1,3.4,12.4,6.6,19,9.5
			C160.3,461.2,167.2,463.9,174.1,466.2z"/>
		<path class="st3" d="M212,475.5l10.6-65.8c-5.2-0.8-10.5-1.9-15.8-3.2c-4.8-1.2-9.5-2.7-14.1-4.3L170,464.8
			c6.6,2.4,13.4,4.4,20.3,6.2C197.5,472.8,204.7,474.3,212,475.5z"/>
		<path class="st1" d="M250.8,478.2l-0.6-66.6c-5.3,0.1-10.7-0.1-16.1-0.5c-5-0.4-9.8-1.1-14.6-1.9l-11.8,65.6
			c6.9,1.2,13.9,2.1,21.1,2.7C236.1,478,243.5,478.3,250.8,478.2z"/>
		<path class="st3" d="M289.6,474.3l-11.9-65.5c-5.2,1-10.5,1.7-15.9,2.2c-5,0.4-9.9,0.6-14.8,0.6l-0.6,66.6c7,0,14.1-0.3,21.2-0.9
			C275,476.7,282.4,475.7,289.6,474.3z"/>
		<path class="st1" d="M327.1,464l-22.7-62.6c-5,1.8-10.1,3.5-15.3,4.8c-4.8,1.3-9.6,2.3-14.4,3.1l10.6,65.8
			c6.9-1.2,13.8-2.6,20.8-4.4C313.2,468.8,320.2,466.5,327.1,464z"/>
		<path class="st3" d="M362.4,447.5l-33-57.9c-4.6,2.7-9.4,5.1-14.3,7.4c-4.5,2.1-9.1,3.9-13.7,5.5l21.5,63.1
			c6.6-2.3,13.2-4.9,19.7-7.9C349.5,454.5,356,451.1,362.4,447.5z"/>
		<path class="st1" d="M394.4,425.3l-42.2-51.5c-4.1,3.4-8.4,6.6-12.9,9.7c-4.1,2.8-8.3,5.3-12.6,7.7l31.8,58.5
			c6.1-3.4,12.2-7.1,18.1-11.1C382.8,434.4,388.7,430,394.4,425.3z"/>
		<path class="st3" d="M422.1,398l-50.3-43.6c-3.5,4-7.1,7.9-11,11.7c-3.6,3.4-7.3,6.7-11.1,9.7l41.3,52.3c5.5-4.4,10.8-9,16-14
			C412.3,408.9,417.4,403.6,422.1,398z"/>
		<path class="st1" d="M444.9,366.4L388,331.9c-2.7,4.6-5.7,9-8.9,13.4c-3,4-6.1,7.8-9.3,11.4l49.5,44.6c4.7-5.2,9.1-10.7,13.4-16.5
			C437.1,378.8,441.2,372.7,444.9,366.4z"/>
		<path class="st3" d="M462.1,331.5l-62-24.5c-1.9,5-4.1,9.9-6.5,14.7c-2.2,4.4-4.7,8.7-7.3,12.9l56.3,35.7
			c3.7-6,7.2-12.1,10.4-18.5C456.4,345,459.4,338.3,462.1,331.5z"/>
		<path class="st1" d="M473.1,294.1l-65.2-13.7c-1.1,5.2-2.4,10.4-4,15.6c-1.5,4.8-3.1,9.4-5,13.9l61.5,25.7
			c2.7-6.5,5.1-13.1,7.2-20C469.8,308.4,471.6,301.3,473.1,294.1z"/>
		<path class="st3" d="M477.6,255.4l-66.6-2.5c-0.2,5.3-0.6,10.6-1.3,16c-0.6,4.9-1.5,9.8-2.6,14.5l64.9,14.9
			c1.5-6.8,2.8-13.8,3.7-20.9C476.8,270.1,477.4,262.7,477.6,255.4z"/>
		<path class="st1" d="M475.6,216.5l-66,8.8c0.7,5.3,1.2,10.6,1.4,16c0.2,5,0.1,9.9-0.1,14.8l66.5,3.8c0.4-7,0.4-14.1,0.1-21.2
			C477.3,231.1,476.6,223.8,475.6,216.5z"/>
		<path class="st3" d="M467.1,178.5l-63.6,19.8c1.6,5.1,3,10.2,4.1,15.5c1,4.9,1.8,9.7,2.4,14.6l66.2-7.5c-0.8-7-2-13.9-3.5-20.9
			C471.1,192.7,469.2,185.5,467.1,178.5z"/>
		<path class="st1" d="M452.2,142.5l-59.4,30.2c2.4,4.7,4.7,9.6,6.7,14.6c1.8,4.6,3.4,9.3,4.8,14l64-18.5c-2-6.7-4.3-13.4-6.9-20.1
			C458.6,155.8,455.6,149,452.2,142.5z"/>
		<path class="st3" d="M431.5,109.5l-53.4,39.8c3.2,4.2,6.2,8.7,9,13.3c2.6,4.2,4.9,8.6,7.1,13l60-29.1c-3.1-6.3-6.5-12.5-10.2-18.6
			C440.1,121.5,436,115.4,431.5,109.5z"/>
		<path class="st1" d="M405.6,80.5l-46,48.2c3.9,3.6,7.6,7.5,11.2,11.6c3.3,3.8,6.3,7.6,9.2,11.6l54.2-38.7
			c-4.1-5.7-8.5-11.2-13.1-16.6C416,90.9,410.9,85.5,405.6,80.5z"/>
		<path class="st3" d="M375.1,56.2l-37.2,55.3c4.4,2.9,8.8,6.1,13,9.5c3.9,3.2,7.5,6.4,11,9.9l46.9-47.3c-5-4.9-10.3-9.7-15.8-14.2
			C387.2,64.7,381.2,60.3,375.1,56.2z"/>
		<path class="st1" d="M341,37.5l-27.3,60.7c4.9,2.2,9.6,4.5,14.4,7.2c4.3,2.4,8.5,5.1,12.5,7.9l38.3-54.5c-5.8-4-11.8-7.8-18-11.3
			C354.3,43.8,347.7,40.5,341,37.5z"/>
		<path class="st3" d="M304.2,24.7l-16.7,64.5c5.1,1.3,10.3,2.8,15.4,4.7c4.7,1.7,9.2,3.6,13.6,5.7L345,39.3
			c-6.4-3-12.9-5.7-19.6-8.1C318.4,28.7,311.3,26.5,304.2,24.7z"/>
		<path class="st1" d="M265.8,18.4l-5.6,66.4c5.3,0.4,10.6,1.1,16,2c4.9,0.9,9.7,2,14.4,3.3l18-64.2c-6.8-1.9-13.7-3.4-20.7-4.7
			C280.4,19.9,273.1,18.9,265.8,18.4z"/>
		<path class="st4" d="M222.5,19l6.9,66.2c5.3-0.6,10.6-0.9,16-1c5-0.1,9.9,0.1,14.7,0.5l5.6-66.4c-7-0.5-14.1-0.8-21.2-0.7
			C237.1,17.7,229.7,18.2,222.5,19z"/>
		<g>
			<g class="st5">
				<path class="st6" d="M245.6,54.6c-1.2,0-2.2-0.3-3-0.9c-0.8-0.6-1.5-1.6-1.9-2.8s-0.7-2.7-0.7-4.4s0.2-3.2,0.6-4.4
					c0.4-1.2,1.1-2.2,1.9-2.8c0.8-0.7,1.8-1,3-1s2.2,0.3,3,0.9c0.8,0.6,1.5,1.6,1.9,2.8c0.5,1.2,0.7,2.7,0.7,4.4s-0.2,3.2-0.6,4.5
					c-0.4,1.2-1,2.2-1.9,2.8C247.8,54.3,246.8,54.6,245.6,54.6z M245.6,52.9c1.2,0,2.1-0.6,2.7-1.7c0.6-1.1,0.9-2.7,0.9-4.8
					c0-1.4-0.2-2.6-0.5-3.5c-0.3-1-0.7-1.7-1.3-2.2s-1.2-0.8-2-0.7c-1.2,0-2.1,0.6-2.7,1.7c-0.6,1.1-0.9,2.8-0.9,4.8
					c0,1.4,0.2,2.6,0.5,3.5s0.7,1.7,1.3,2.2C244.2,52.6,244.8,52.9,245.6,52.9z"/>
			</g>
		</g>
		<g>
			<g class="st5">
				<path class="st6" d="M200.4,59.3l-0.3-1.4l4.2-6.6c0.5-0.8,0.9-1.5,1.2-2c0.3-0.6,0.5-1.1,0.6-1.6s0.1-1,0-1.4
					c-0.1-0.6-0.3-1-0.7-1.4c-0.3-0.4-0.8-0.6-1.3-0.7c-0.5-0.1-1-0.2-1.6,0c-0.6,0.1-1.1,0.3-1.5,0.7c-0.4,0.3-0.7,0.7-0.8,1.2
					c-0.2,0.5-0.2,1-0.1,1.6l-1.8,0.3c-0.2-0.9-0.1-1.8,0.2-2.5s0.8-1.4,1.4-1.9c0.7-0.5,1.5-0.9,2.4-1c0.9-0.2,1.8-0.1,2.6,0.1
					c0.8,0.3,1.4,0.7,2,1.3c0.5,0.6,0.9,1.3,1,2.1c0.1,0.6,0.1,1.2,0,1.8s-0.4,1.3-0.7,2c-0.4,0.8-0.9,1.7-1.7,2.9l-2.8,4.4v0.1
					L210,56l0.3,1.7L200.4,59.3z"/>
				<path class="st6" d="M218.8,56.1c-0.6,0.1-1.3,0.1-2,0s-1.4-0.4-2-0.9s-1.2-1.1-1.7-2s-0.9-2.1-1.1-3.5
					c-0.3-1.4-0.4-2.7-0.3-3.8c0.1-1.1,0.3-2.1,0.6-2.9c0.4-0.8,0.9-1.5,1.5-2s1.4-0.9,2.3-1c0.9-0.2,1.7-0.1,2.5,0.1
					c0.8,0.2,1.4,0.6,2,1.2c0.5,0.5,1,1.2,1.2,2l-1.9,0.3c-0.3-0.7-0.7-1.2-1.3-1.6c-0.6-0.4-1.3-0.5-2.1-0.3
					c-1.2,0.2-2.1,0.9-2.6,2.1c-0.5,1.2-0.6,2.7-0.2,4.7h0.1c0.2-0.5,0.5-0.9,0.8-1.3c0.3-0.4,0.7-0.7,1.2-1s0.9-0.4,1.5-0.5
					c0.9-0.2,1.8-0.1,2.6,0.2s1.5,0.8,2.1,1.5s1,1.6,1.2,2.6s0.1,1.9-0.2,2.8c-0.3,0.9-0.8,1.6-1.5,2.3
					C220.7,55.6,219.8,56,218.8,56.1z M218.5,54.5c0.6-0.1,1.2-0.4,1.7-0.8c0.5-0.4,0.8-0.9,1-1.5s0.2-1.2,0.1-1.9
					c-0.1-0.7-0.4-1.2-0.8-1.7c-0.4-0.5-0.9-0.8-1.4-1.1c-0.6-0.2-1.2-0.3-1.8-0.2c-0.5,0.1-0.9,0.3-1.3,0.5c-0.4,0.3-0.7,0.6-1,1
					s-0.4,0.8-0.5,1.3s-0.1,0.9,0,1.4c0.1,0.6,0.4,1.2,0.8,1.7c0.4,0.5,0.9,0.9,1.5,1.1S217.8,54.6,218.5,54.5z"/>
			</g>
		</g>
		<g>
			<g class="st5">
				<path class="st6" d="M183.3,66.7c-1,0.4-1.9,0.5-2.8,0.4c-0.9-0.1-1.6-0.3-2.3-0.7c-0.7-0.4-1.1-1-1.5-1.8l1.9-0.7
					c0.2,0.5,0.5,0.8,1,1.1c0.4,0.2,0.9,0.4,1.4,0.4s1.1-0.1,1.7-0.3c0.6-0.2,1.2-0.6,1.6-1c0.4-0.4,0.7-0.9,0.8-1.4s0.1-1-0.1-1.5
					c-0.2-0.6-0.5-1-0.9-1.3s-0.9-0.5-1.6-0.6c-0.6,0-1.3,0.1-2.1,0.3l-1.2,0.4l-0.6-1.6l1.2-0.4c0.6-0.2,1.1-0.5,1.5-0.9
					s0.6-0.8,0.7-1.3c0.1-0.5,0.1-1-0.1-1.5c-0.2-0.5-0.5-0.9-0.8-1.2c-0.4-0.3-0.8-0.5-1.3-0.5s-1,0-1.6,0.2
					c-0.5,0.2-1,0.5-1.4,0.8c-0.4,0.4-0.7,0.8-0.8,1.2c-0.2,0.5-0.2,0.9,0,1.5l-1.8,0.6c-0.3-0.8-0.3-1.6,0-2.3
					c0.2-0.8,0.6-1.4,1.2-2c0.6-0.6,1.3-1,2.2-1.4c0.9-0.3,1.8-0.4,2.6-0.3c0.8,0.1,1.5,0.4,2.1,0.9s1,1.1,1.3,1.8
					c0.3,0.8,0.3,1.6,0.1,2.4c-0.2,0.8-0.7,1.4-1.4,1.9V58c1-0.2,1.9-0.1,2.7,0.4s1.3,1.2,1.7,2.1c0.3,0.8,0.3,1.6,0.1,2.4
					c-0.2,0.8-0.6,1.5-1.3,2.2C185,65.8,184.2,66.3,183.3,66.7z"/>
			</g>
		</g>
		<g>
			<g class="st5">
				<path class="st6" d="M146.6,84.1c-0.9,0.5-1.8,0.8-2.7,0.9s-1.7,0-2.4-0.3s-1.3-0.8-1.8-1.5l1.7-1c0.3,0.4,0.7,0.7,1.1,0.9
					c0.5,0.2,1,0.2,1.5,0.1s1.1-0.3,1.6-0.6c0.6-0.3,1.1-0.7,1.4-1.2c0.3-0.5,0.5-1,0.6-1.5c0-0.5-0.1-1-0.3-1.5
					c-0.3-0.5-0.7-0.9-1.2-1.1s-1-0.3-1.6-0.3c-0.6,0.1-1.3,0.3-2,0.7l-1.1,0.6l-0.9-1.5l1.1-0.6c0.6-0.3,1-0.7,1.3-1.1
					s0.5-0.9,0.5-1.4s-0.1-1-0.4-1.5c-0.3-0.5-0.6-0.8-1-1s-0.9-0.3-1.3-0.3s-1,0.2-1.5,0.5s-0.9,0.6-1.2,1s-0.5,0.9-0.6,1.3
					c-0.1,0.5,0,1,0.2,1.4L136,76c-0.4-0.7-0.5-1.5-0.4-2.3s0.4-1.5,0.9-2.2s1.1-1.3,1.9-1.7c0.9-0.5,1.7-0.7,2.5-0.8
					c0.8,0,1.5,0.2,2.2,0.6s1.2,0.9,1.5,1.5c0.4,0.8,0.6,1.6,0.5,2.4s-0.4,1.5-1,2.1l0.1,0.1c1-0.4,1.9-0.4,2.7-0.1s1.5,0.9,2,1.8
					c0.4,0.8,0.6,1.5,0.6,2.4s-0.4,1.6-0.9,2.4C148.2,82.9,147.5,83.6,146.6,84.1z"/>
				<path class="st6" d="M158.4,77.3c-0.8,0.5-1.6,0.7-2.4,0.8c-0.8,0-1.6-0.1-2.3-0.4s-1.3-0.8-1.7-1.5l1.6-0.9
					c0.4,0.6,1,0.9,1.8,1.1c0.7,0.1,1.5,0,2.2-0.4c0.6-0.3,1-0.8,1.3-1.3s0.4-1.1,0.4-1.7s-0.2-1.2-0.5-1.8
					c-0.3-0.6-0.8-1.1-1.3-1.4s-1.1-0.5-1.7-0.5c-0.6,0-1.2,0.2-1.8,0.5c-0.4,0.2-0.8,0.6-1.2,0.9c-0.4,0.4-0.6,0.8-0.8,1.1
					l-1.7,0.7l-3.1-7.3l7.2-4.1l0.9,1.5l-5.8,3.3l1.9,4.4h0.1c0.2-0.4,0.4-0.8,0.7-1.2c0.3-0.4,0.7-0.7,1.2-1
					c0.8-0.5,1.7-0.7,2.6-0.7c0.9,0,1.7,0.3,2.5,0.8s1.4,1.2,2,2.1c0.5,0.9,0.8,1.8,0.8,2.7c0,0.9-0.2,1.8-0.7,2.6
					C160,76.2,159.3,76.8,158.4,77.3z"/>
			</g>
		</g>
		<g>
			<g class="st5">
				<path class="st6" d="M110.9,88.3l10.2,12.3l-1.5,1.2l-8.9-10.7l-0.1,0.1l-1.3,4.5l-1.3-1.5l1.4-4.6L110.9,88.3z"/>
				<path class="st6" d="M124.7,97.7l-0.9-1.1l0.4-7.8c0-0.9,0.1-1.7,0-2.3c0-0.6-0.1-1.2-0.2-1.7s-0.4-0.9-0.7-1.3
					c-0.4-0.4-0.8-0.7-1.2-0.9c-0.5-0.1-1-0.2-1.5,0c-0.5,0.1-1,0.4-1.4,0.7c-0.5,0.4-0.8,0.8-1,1.3s-0.2,1-0.1,1.5s0.3,1,0.7,1.5
					l-1.4,1.2c-0.6-0.7-1-1.5-1.1-2.3s0-1.6,0.3-2.4s0.8-1.5,1.6-2.1c0.7-0.6,1.5-1,2.3-1.1c0.8-0.2,1.6-0.1,2.3,0.1
					c0.7,0.3,1.4,0.7,1.9,1.3c0.4,0.5,0.7,1,0.9,1.5s0.3,1.3,0.4,2.1c0,0.9,0,2-0.1,3.3l-0.3,5.3l0.1,0.1l5.7-4.8l1.1,1.3
					L124.7,97.7z"/>
			</g>
		</g>
		<g>
			<g class="st5">
				<path class="st6" d="M94.2,129.3l-1.1-0.9l-1-7.8c-0.1-0.9-0.2-1.7-0.3-2.3c-0.1-0.6-0.3-1.2-0.5-1.6s-0.5-0.8-0.9-1.1
					c-0.4-0.4-0.9-0.6-1.4-0.6c-0.5-0.1-1,0-1.4,0.2c-0.5,0.2-0.9,0.5-1.3,1s-0.7,1-0.8,1.5c-0.1,0.5-0.1,1,0.1,1.5s0.5,0.9,1,1.3
					l-1.2,1.4c-0.7-0.6-1.2-1.3-1.5-2.1c-0.3-0.8-0.3-1.6-0.1-2.4c0.2-0.8,0.6-1.6,1.2-2.3c0.6-0.7,1.3-1.2,2.1-1.5
					c0.8-0.3,1.5-0.4,2.3-0.3s1.5,0.5,2.1,1c0.4,0.4,0.8,0.8,1.1,1.4c0.3,0.5,0.5,1.2,0.7,2s0.4,1.9,0.5,3.3l0.6,5.2l0.1,0.1
					l4.8-5.7l1.3,1.1L94.2,129.3z"/>
				<path class="st6" d="M106.4,115.5c-0.7,0.8-1.5,1.4-2.3,1.8s-1.6,0.5-2.5,0.4c-0.8-0.1-1.5-0.4-2.2-1c-0.5-0.4-0.9-0.9-1.2-1.5
					c-0.3-0.6-0.4-1.2-0.4-1.8c0-0.6,0.2-1.2,0.5-1.7l-0.1-0.1c-0.6,0.5-1.4,0.6-2.2,0.5c-0.8-0.1-1.5-0.4-2.2-1
					c-0.6-0.5-1-1.2-1.3-1.9c-0.2-0.7-0.2-1.5,0-2.3s0.6-1.6,1.2-2.3c0.6-0.7,1.3-1.2,2-1.5c0.8-0.3,1.5-0.4,2.3-0.3
					s1.4,0.4,2.1,0.9c0.6,0.6,1.1,1.2,1.3,2c0.2,0.8,0.1,1.5-0.2,2.2l0.1,0.1c0.5-0.4,1-0.6,1.6-0.7s1.2-0.1,1.8,0.1
					c0.6,0.2,1.2,0.5,1.7,0.9c0.7,0.6,1.1,1.2,1.3,2c0.2,0.8,0.2,1.6,0,2.5C107.5,113.8,107.1,114.7,106.4,115.5z M99.3,109.4
					c0.4-0.4,0.6-0.9,0.7-1.4s0.1-1,0-1.4c-0.1-0.5-0.4-0.9-0.8-1.2c-0.4-0.3-0.9-0.6-1.3-0.6s-0.9,0-1.4,0.2s-0.9,0.5-1.3,1
					s-0.6,0.9-0.8,1.4c-0.1,0.5-0.1,1,0,1.4s0.4,0.8,0.8,1.2c0.4,0.4,0.9,0.6,1.3,0.7c0.5,0.1,0.9,0,1.4-0.2
					C98.5,110.2,98.9,109.9,99.3,109.4z M105.1,114.4c0.5-0.6,0.8-1.1,1-1.7s0.2-1.1,0-1.6c-0.1-0.5-0.4-0.9-0.9-1.3s-1-0.6-1.5-0.7
					c-0.6-0.1-1.1,0-1.6,0.2s-1,0.6-1.5,1.1c-0.4,0.5-0.7,1.1-0.9,1.6c-0.1,0.6-0.1,1.1,0,1.7c0.2,0.5,0.5,1,0.9,1.4
					s0.9,0.6,1.4,0.7s1,0,1.5-0.3C104.1,115.3,104.6,114.9,105.1,114.4z"/>
			</g>
		</g>
		<g>
			<g class="st5">
				<path class="st6" d="M82.2,149l-8.4-13.4l-0.1-0.1l-4.3,7.1l-1.5-0.9l5.3-8.8l1.6,0.9l8.5,13.4L82.2,149z"/>
			</g>
		</g>
		<g>
			<g class="st5">
				<path class="st6" d="M63.1,186.3l-1.3-0.5l-3.5-7c-0.4-0.8-0.8-1.5-1.1-2.1s-0.7-1-1-1.3s-0.7-0.6-1.2-0.8s-1-0.3-1.5-0.2
					s-0.9,0.3-1.3,0.7c-0.4,0.4-0.7,0.8-0.9,1.3c-0.2,0.6-0.3,1.1-0.2,1.6s0.3,1,0.6,1.4s0.8,0.7,1.4,0.9l-0.7,1.7
					c-0.9-0.3-1.6-0.8-2.1-1.5s-0.8-1.4-0.9-2.2c-0.1-0.8,0-1.7,0.4-2.6c0.3-0.9,0.8-1.6,1.5-2.1c0.6-0.5,1.3-0.9,2.1-1
					s1.5-0.1,2.3,0.2c0.5,0.2,1,0.5,1.5,0.9c0.4,0.4,0.9,1,1.3,1.7c0.5,0.7,1,1.7,1.6,2.9l2.3,4.7h0.1l2.7-6.9l1.6,0.6L63.1,186.3z"
					/>
				<path class="st6" d="M54.6,163.3c0.2-0.6,0.6-1.2,1.1-1.7s1.1-0.9,1.8-1.2s1.6-0.4,2.6-0.4s2.2,0.3,3.6,0.9
					c1.3,0.5,2.5,1.1,3.4,1.7c0.9,0.6,1.7,1.3,2.2,2.1s0.8,1.5,0.9,2.3s0,1.6-0.3,2.5c-0.3,0.8-0.8,1.5-1.4,2s-1.3,0.9-2,1.1
					c-0.8,0.2-1.5,0.2-2.4,0l0.7-1.8c0.7,0.1,1.4,0,2.1-0.3c0.6-0.3,1.1-0.9,1.4-1.6c0.4-1.2,0.3-2.3-0.5-3.3
					c-0.7-1.1-2-1.9-3.9-2.7v0.1c0.3,0.4,0.5,0.9,0.7,1.4s0.2,1,0.2,1.5s-0.1,1-0.3,1.6c-0.3,0.9-0.8,1.6-1.5,2.1s-1.5,0.9-2.4,1
					s-1.8,0-2.8-0.4c-0.9-0.4-1.7-0.9-2.3-1.6c-0.6-0.7-1-1.5-1.1-2.4C54.1,165.3,54.2,164.3,54.6,163.3z M56.2,163.9
					c-0.2,0.6-0.3,1.2-0.2,1.8s0.4,1.1,0.8,1.6c0.4,0.5,0.9,0.8,1.5,1.1c0.6,0.2,1.2,0.3,1.9,0.2c0.6-0.1,1.2-0.3,1.6-0.7
					c0.5-0.4,0.8-0.9,1.1-1.5c0.2-0.5,0.3-0.9,0.2-1.4c0-0.5-0.1-0.9-0.3-1.3c-0.2-0.4-0.5-0.8-0.8-1.1s-0.7-0.6-1.2-0.7
					c-0.6-0.2-1.2-0.3-1.8-0.2s-1.2,0.3-1.7,0.7S56.5,163.3,56.2,163.9z"/>
			</g>
		</g>
		<g>
			<g class="st5">
				<path class="st6" d="M42.8,209.5l15.7,3.2l-0.4,1.9l-13.7-2.8v0.1l1.8,4.3l-1.9-0.4l-1.8-4.4L42.8,209.5z"/>
				<path class="st6" d="M60.7,203.2c-0.2,1.1-0.6,1.9-1.1,2.7c-0.5,0.7-1.2,1.2-1.9,1.6c-0.8,0.3-1.6,0.4-2.4,0.2
					c-0.7-0.1-1.3-0.4-1.8-0.8c-0.5-0.4-0.9-0.8-1.2-1.4c-0.3-0.5-0.4-1.1-0.4-1.7h-0.1c-0.3,0.7-0.9,1.2-1.6,1.5
					c-0.7,0.3-1.5,0.4-2.4,0.2c-0.8-0.2-1.5-0.5-2-1s-0.9-1.2-1.1-2c-0.2-0.8-0.2-1.6,0-2.6c0.2-0.9,0.5-1.7,1-2.3s1.1-1.1,1.8-1.4
					c0.7-0.3,1.5-0.3,2.3-0.2c0.8,0.2,1.5,0.6,2.1,1.1c0.6,0.6,0.9,1.3,0.9,2h0.1c0.2-0.5,0.6-1,1-1.4c0.5-0.4,1-0.6,1.6-0.8
					s1.3-0.2,1.9,0c0.8,0.2,1.6,0.6,2.1,1.1c0.6,0.6,1,1.3,1.2,2.2C60.9,201.2,60.9,202.2,60.7,203.2z M51.5,201.4
					c0.1-0.6,0.1-1.1,0-1.6s-0.4-0.9-0.7-1.2c-0.4-0.3-0.8-0.6-1.3-0.7c-0.5-0.1-1-0.1-1.5,0.1c-0.4,0.2-0.8,0.4-1.1,0.8
					c-0.3,0.4-0.5,0.9-0.6,1.4c-0.1,0.6-0.1,1.1,0,1.6s0.4,0.9,0.7,1.2s0.8,0.5,1.3,0.6s1,0.1,1.5-0.1c0.5-0.2,0.8-0.4,1.2-0.8
					C51.2,202.4,51.4,202,51.5,201.4z M59,202.9c0.1-0.7,0.2-1.3,0-1.9c-0.1-0.6-0.4-1-0.7-1.4c-0.4-0.4-0.8-0.6-1.4-0.7
					c-0.6-0.1-1.1-0.1-1.7,0.1c-0.5,0.2-1,0.5-1.3,1c-0.4,0.5-0.6,1-0.8,1.7c-0.1,0.7-0.1,1.3,0,1.9c0.2,0.6,0.4,1.1,0.8,1.5
					c0.4,0.4,0.9,0.6,1.5,0.8c0.6,0.1,1.1,0.1,1.6-0.1c0.5-0.2,0.9-0.5,1.2-1C58.6,204.2,58.8,203.6,59,202.9z"/>
			</g>
		</g>
		<g>
			<g class="st5">
				<path class="st6" d="M52.8,251.3h-1.4l-5.6-5.5c-0.7-0.6-1.2-1.2-1.7-1.6c-0.5-0.4-1-0.7-1.4-0.9s-0.9-0.3-1.4-0.3
					c-0.6,0-1.1,0.1-1.5,0.4c-0.4,0.3-0.7,0.6-1,1.1c-0.2,0.5-0.4,1-0.4,1.6s0.1,1.2,0.3,1.6c0.2,0.5,0.6,0.8,1,1.1s1,0.4,1.6,0.4
					l-0.1,1.8c-0.9,0-1.8-0.3-2.4-0.7c-0.7-0.5-1.2-1.1-1.6-1.8c-0.4-0.8-0.5-1.6-0.5-2.5s0.3-1.8,0.7-2.5s1-1.3,1.7-1.7
					s1.4-0.6,2.3-0.5c0.6,0,1.2,0.1,1.7,0.4c0.6,0.2,1.2,0.6,1.8,1.1c0.7,0.5,1.5,1.3,2.4,2.2l3.7,3.7h0.1l0.2-7.4l1.7,0.1
					L52.8,251.3z"/>
				<path class="st6" d="M53.2,238h-1.4l-5.6-5.5c-0.7-0.6-1.2-1.2-1.7-1.6c-0.5-0.4-1-0.7-1.4-0.9s-0.9-0.3-1.4-0.3
					c-0.6,0-1.1,0.1-1.5,0.4c-0.4,0.3-0.7,0.6-1,1.1c-0.2,0.5-0.4,1-0.4,1.6s0.1,1.2,0.3,1.6c0.2,0.5,0.6,0.8,1,1.1s1,0.4,1.6,0.4
					l-0.1,1.8c-0.9,0-1.8-0.3-2.4-0.7c-0.7-0.5-1.2-1.1-1.6-1.8s-0.5-1.6-0.5-2.5s0.3-1.8,0.7-2.5s1-1.3,1.7-1.7s1.4-0.6,2.3-0.5
					c0.6,0,1.2,0.1,1.7,0.4s1.2,0.6,1.8,1.1c0.7,0.5,1.5,1.3,2.4,2.2l3.7,3.7h0.1l0.2-7.4l1.7,0.1L53.2,238z"/>
			</g>
		</g>
		<g>
			<g class="st5">
				<path class="st6" d="M39.9,275.8c-0.1-0.7,0-1.3,0.1-2c0.2-0.7,0.5-1.3,1-1.9s1.2-1.1,2.1-1.6c0.9-0.5,2.1-0.8,3.6-1
					c1.4-0.2,2.7-0.2,3.8-0.1s2.1,0.4,2.9,0.8c0.8,0.4,1.5,0.9,1.9,1.6c0.5,0.7,0.8,1.4,0.9,2.3c0.1,0.9,0,1.7-0.2,2.4
					c-0.3,0.7-0.7,1.4-1.3,1.9s-1.3,0.9-2.1,1.1l-0.2-1.9c0.7-0.3,1.3-0.7,1.7-1.3s0.6-1.3,0.4-2.1c-0.2-1.2-0.8-2.1-2-2.7
					s-2.7-0.7-4.7-0.5v0.1c0.5,0.2,0.9,0.5,1.3,0.9c0.4,0.4,0.7,0.8,0.9,1.2c0.2,0.5,0.4,1,0.5,1.5c0.1,0.9,0,1.8-0.3,2.6
					c-0.4,0.8-0.9,1.5-1.6,2.1c-0.7,0.6-1.6,0.9-2.6,1s-1.9,0-2.8-0.3c-0.9-0.3-1.6-0.9-2.2-1.6C40.3,277.8,40,276.9,39.9,275.8z
					 M41.6,275.6c0.1,0.7,0.3,1.2,0.7,1.7s0.9,0.8,1.5,1.1c0.6,0.2,1.2,0.3,1.9,0.2s1.2-0.3,1.7-0.7c0.5-0.4,0.9-0.8,1.1-1.4
					s0.3-1.2,0.2-1.8c-0.1-0.5-0.2-0.9-0.5-1.3c-0.2-0.4-0.6-0.7-0.9-1c-0.4-0.3-0.8-0.5-1.3-0.6s-0.9-0.2-1.4-0.1
					c-0.6,0.1-1.2,0.3-1.7,0.7c-0.5,0.4-0.9,0.8-1.2,1.4C41.6,274.3,41.5,275,41.6,275.6z"/>
			</g>
		</g>
		<g>
			<g class="st5">
				<path class="st6" d="M65.1,306.9c0.3,1,0.4,1.9,0.3,2.8s-0.4,1.6-0.8,2.3c-0.5,0.6-1.1,1.1-1.9,1.4l-0.6-1.9
					c0.5-0.2,0.8-0.5,1.1-0.9s0.4-0.9,0.5-1.4c0-0.5,0-1.1-0.2-1.7c-0.2-0.7-0.5-1.2-0.9-1.6s-0.8-0.7-1.3-0.9c-0.5-0.2-1-0.2-1.6,0
					s-1,0.5-1.4,0.9c-0.3,0.4-0.5,0.9-0.6,1.5s0,1.3,0.3,2.1l0.4,1.2l-1.6,0.5l-0.4-1.2c-0.2-0.6-0.5-1.1-0.8-1.5
					c-0.4-0.4-0.8-0.7-1.3-0.8c-0.5-0.1-1-0.1-1.5,0.1s-0.9,0.4-1.2,0.8c-0.3,0.3-0.5,0.8-0.6,1.2c-0.1,0.5,0,1,0.1,1.6
					c0.2,0.5,0.4,1,0.8,1.4c0.3,0.4,0.7,0.7,1.2,0.9c0.5,0.2,0.9,0.2,1.5,0.1l0.6,1.8c-0.8,0.2-1.6,0.2-2.3-0.1
					c-0.7-0.3-1.4-0.7-2-1.3c-0.6-0.6-1-1.4-1.3-2.3s-0.4-1.8-0.2-2.6c0.2-0.8,0.5-1.5,1-2c0.5-0.6,1.1-1,1.8-1.2
					c0.9-0.3,1.7-0.3,2.4,0s1.4,0.7,1.8,1.4h0.1c-0.1-1,0-1.9,0.5-2.6s1.2-1.3,2.2-1.6c0.8-0.3,1.6-0.3,2.4,0
					c0.8,0.2,1.5,0.7,2.1,1.3C64.4,305.1,64.8,305.9,65.1,306.9z"/>
				<path class="st6" d="M45.4,298.2l15.3-4.8l0.6,1.8L48,299.4v0.1l3.6,2.9l-1.9,0.6l-3.7-3L45.4,298.2z"/>
			</g>
		</g>
		<g>
			<g class="st5">
				<path class="st6" d="M63,344.8l14.2-7.3l0.9,1.7l-12.4,6.4v0.1l4.1,2.3l-1.7,0.9l-4.2-2.3L63,344.8z"/>
				<path class="st6" d="M71.9,327l-3.3,1.7l-0.7,0.3l-10.2,5.3l-0.8-1.6l14.2-7.3L71.9,327z M72.4,335.2l-1.4,0.7l-13.1-1.1l-0.5-1
					l2.2-1.1l0.4,0.7l9.9,0.9l0.1-0.1l-4.3-8.4l1.5-0.8L72.4,335.2z"/>
			</g>
		</g>
		<g>
			<g class="st5">
				<path class="st6" d="M98.8,372.4l-1.1,0.8l-7.8-0.8c-0.9-0.1-1.7-0.1-2.3-0.2s-1.2,0-1.7,0.1s-0.9,0.3-1.3,0.6
					c-0.5,0.3-0.8,0.7-0.9,1.2s-0.2,0.9-0.1,1.4s0.3,1,0.7,1.5c0.4,0.5,0.8,0.8,1.3,1.1c0.5,0.2,1,0.3,1.5,0.2
					c0.5-0.1,1-0.3,1.5-0.7l1.1,1.5c-0.8,0.6-1.5,0.9-2.4,1c-0.8,0.1-1.6-0.1-2.4-0.4c-0.8-0.4-1.4-0.9-2-1.7
					c-0.6-0.8-0.9-1.5-1-2.3s0-1.6,0.3-2.3c0.3-0.7,0.8-1.3,1.4-1.8c0.5-0.4,1-0.6,1.6-0.8c0.6-0.2,1.3-0.2,2.1-0.2
					c0.9,0,2,0.1,3.3,0.2l5.2,0.6l0.1-0.1l-4.5-6l1.4-1L98.8,372.4z"/>
				<path class="st6" d="M87.9,357.5c0.7,0.9,1.1,1.9,1,3c0,1-0.4,2.1-1.1,3.2s-1.8,2.2-3.2,3.2c-1.4,1-2.7,1.7-3.9,2.1
					c-1.2,0.4-2.4,0.4-3.4,0.2c-1-0.3-1.9-0.9-2.6-1.8s-1-1.9-1-3s0.4-2.1,1.1-3.2s1.8-2.2,3.2-3.2c1.4-1,2.7-1.8,4-2.1
					s2.4-0.4,3.4-0.2C86.3,355.9,87.2,356.5,87.9,357.5z M86.5,358.5c-0.7-0.9-1.7-1.3-3-1.2s-2.8,0.9-4.4,2.1
					c-1.1,0.8-2,1.7-2.6,2.5s-0.9,1.6-1,2.3c-0.1,0.7,0.1,1.4,0.6,2c0.7,0.9,1.7,1.3,3,1.1c1.3-0.2,2.8-0.9,4.4-2.1
					c1.1-0.8,2-1.7,2.6-2.5s0.9-1.6,1-2.3C87.1,359.8,87,359.1,86.5,358.5z"/>
			</g>
		</g>
		<g>
			<g class="st5">
				<path class="st6" d="M99.3,398.7l11-11.6l1.4,1.3l-9.6,10.2l0.1,0.1l4.6,0.8l-1.4,1.4l-4.7-0.8L99.3,398.7z"/>
			</g>
		</g>
		<g>
			<g class="st5">
				<path class="st6" d="M144.5,412.8c0.9,0.6,1.5,1.2,2,2c0.5,0.7,0.7,1.5,0.8,2.3c0,0.8-0.2,1.5-0.6,2.3l-1.6-1.1
					c0.3-0.5,0.4-0.9,0.3-1.4c-0.1-0.5-0.2-1-0.5-1.4c-0.3-0.5-0.7-0.8-1.2-1.2c-0.6-0.4-1.1-0.6-1.7-0.7c-0.6-0.1-1.1-0.1-1.6,0.1
					s-0.9,0.5-1.2,1s-0.5,1-0.5,1.5s0.1,1.1,0.5,1.6c0.3,0.5,0.8,1,1.5,1.5l1.1,0.7l-1,1.4l-1.1-0.7c-0.5-0.4-1.1-0.6-1.6-0.7
					s-1,0-1.5,0.2s-0.8,0.5-1.2,1c-0.3,0.4-0.5,0.9-0.5,1.4s0.1,0.9,0.3,1.3s0.6,0.8,1.1,1.1c0.5,0.3,0.9,0.5,1.5,0.6
					c0.5,0.1,1,0.1,1.5-0.1c0.5-0.1,0.9-0.4,1.2-0.9l1.6,1c-0.5,0.7-1.1,1.1-1.9,1.4s-1.5,0.3-2.4,0.2c-0.8-0.1-1.6-0.5-2.4-1
					c-0.8-0.6-1.4-1.2-1.8-1.9c-0.4-0.7-0.5-1.5-0.5-2.2c0-0.8,0.3-1.4,0.7-2.1c0.5-0.7,1.1-1.3,1.9-1.5c0.7-0.3,1.5-0.3,2.3,0
					l0.1-0.1c-0.7-0.7-1.2-1.5-1.2-2.4c-0.1-0.9,0.2-1.8,0.7-2.6c0.5-0.7,1.1-1.2,1.9-1.5c0.8-0.3,1.6-0.4,2.5-0.3
					C142.8,411.9,143.6,412.2,144.5,412.8z"/>
				<path class="st6" d="M132.9,405c0.9,0.6,1.5,1.2,2,2c0.5,0.7,0.7,1.5,0.8,2.3c0,0.8-0.2,1.5-0.6,2.3l-1.6-1.1
					c0.3-0.5,0.4-0.9,0.3-1.4c-0.1-0.5-0.2-1-0.5-1.4c-0.3-0.5-0.7-0.8-1.2-1.2c-0.6-0.4-1.1-0.6-1.7-0.7c-0.6-0.1-1.1-0.1-1.6,0.1
					s-0.9,0.5-1.2,1c-0.3,0.5-0.5,1-0.5,1.5s0.1,1.1,0.5,1.6c0.3,0.5,0.8,1,1.5,1.5l1.1,0.7l-1,1.4l-1.1-0.7
					c-0.5-0.4-1.1-0.6-1.6-0.7s-1,0-1.5,0.2s-0.8,0.5-1.2,1c-0.3,0.4-0.5,0.9-0.5,1.4s0.1,0.9,0.3,1.3c0.2,0.4,0.6,0.8,1.1,1.1
					c0.5,0.3,0.9,0.5,1.5,0.6c0.5,0.1,1,0.1,1.5-0.1c0.5-0.1,0.9-0.4,1.2-0.9l1.6,1c-0.5,0.7-1.1,1.1-1.9,1.4
					c-0.7,0.3-1.5,0.3-2.4,0.2c-0.8-0.1-1.6-0.5-2.4-1c-0.8-0.6-1.4-1.2-1.8-1.9c-0.4-0.7-0.5-1.5-0.5-2.2c0-0.8,0.3-1.4,0.7-2.1
					c0.5-0.7,1.1-1.3,1.9-1.5c0.7-0.3,1.5-0.3,2.3,0l0.1-0.1c-0.7-0.7-1.2-1.5-1.2-2.4c-0.1-0.9,0.2-1.8,0.7-2.6
					c0.5-0.7,1.1-1.2,1.9-1.5c0.8-0.3,1.6-0.4,2.5-0.3C131.1,404.1,132,404.4,132.9,405z"/>
			</g>
		</g>
		<g>
			<g class="st5">
				<path class="st6" d="M165.2,441.1l6.6-14.6l1.8,0.8l-5.7,12.7h0.1l4.6-0.8l-0.8,1.8l-4.7,0.8L165.2,441.1z"/>
				<path class="st6" d="M162.8,422.2c0.6,0.3,1.1,0.7,1.6,1.2s0.9,1.1,1.1,1.8c0.3,0.7,0.3,1.6,0.2,2.7c-0.1,1-0.5,2.2-1.1,3.6
					c-0.6,1.3-1.2,2.4-1.9,3.3s-1.4,1.6-2.2,2.1s-1.6,0.7-2.4,0.8c-0.8,0.1-1.6-0.1-2.5-0.5c-0.8-0.4-1.5-0.9-2-1.5s-0.8-1.3-1-2.1
					c-0.1-0.8-0.1-1.5,0.1-2.4l1.7,0.8c-0.1,0.7-0.1,1.4,0.2,2.1c0.3,0.6,0.8,1.1,1.6,1.5c1.1,0.5,2.2,0.4,3.3-0.3s2-1.9,2.8-3.7
					l-0.1-0.1c-0.4,0.3-0.9,0.5-1.4,0.6s-1,0.2-1.5,0.1c-0.5,0-1-0.2-1.5-0.4c-0.8-0.4-1.5-0.9-2-1.7c-0.5-0.7-0.8-1.6-0.9-2.5
					c-0.1-0.9,0.1-1.8,0.5-2.8c0.4-0.9,1-1.6,1.7-2.2s1.6-0.9,2.5-1C160.9,421.6,161.8,421.8,162.8,422.2z M162.1,423.8
					c-0.6-0.3-1.2-0.4-1.8-0.3s-1.2,0.3-1.7,0.7c-0.5,0.4-0.9,0.9-1.2,1.5s-0.4,1.2-0.3,1.8c0,0.6,0.2,1.2,0.6,1.7
					c0.3,0.5,0.8,0.9,1.4,1.2c0.5,0.2,0.9,0.3,1.4,0.3s0.9-0.1,1.4-0.3c0.4-0.2,0.8-0.4,1.2-0.7c0.3-0.3,0.6-0.7,0.8-1.1
					c0.3-0.6,0.4-1.2,0.3-1.8c0-0.6-0.2-1.2-0.6-1.7C163.2,424.5,162.7,424.1,162.1,423.8z"/>
			</g>
		</g>
		<g>
			<g class="st5">
				<path class="st6" d="M209.5,438.4l-0.4,1.4l-6.6,4.3c-0.8,0.5-1.4,0.9-1.9,1.3s-0.9,0.8-1.2,1.2c-0.3,0.4-0.5,0.8-0.6,1.3
					s-0.1,1,0,1.5c0.2,0.5,0.4,0.9,0.8,1.2c0.4,0.3,0.9,0.6,1.4,0.7c0.6,0.2,1.1,0.2,1.6,0c0.5-0.1,0.9-0.4,1.3-0.8
					c0.4-0.4,0.6-0.9,0.8-1.5l1.8,0.5c-0.2,0.9-0.6,1.7-1.2,2.2s-1.3,1-2.1,1.2s-1.7,0.2-2.6-0.1c-0.9-0.2-1.7-0.6-2.3-1.2
					s-1-1.2-1.2-2s-0.2-1.5,0-2.3c0.1-0.6,0.4-1.1,0.7-1.6s0.9-1,1.5-1.5c0.7-0.5,1.6-1.2,2.7-1.9l4.4-2.8v-0.1l-7.2-1.9l0.4-1.7
					L209.5,438.4z"/>
				<path class="st6" d="M189.7,433.3l-0.9,3.6l-0.2,0.7l-2.9,11.1l-1.8-0.5l4-15.5L189.7,433.3z M196.1,438.3l-0.4,1.5l-9.6,9
					l-1.1-0.3l0.6-2.4l0.8,0.2l7.2-6.8v-0.1l-9.2-2.4l0.4-1.7L196.1,438.3z"/>
			</g>
		</g>
		<g>
			<g class="st5">
				<path class="st6" d="M230.3,441.2c0.9,0.1,1.7,0.3,2.4,0.7c0.7,0.4,1.2,1,1.6,1.6s0.6,1.4,0.6,2.2l-1.9-0.1
					c0-0.7-0.3-1.3-0.8-1.9s-1.2-0.8-2-0.9c-0.7-0.1-1.2,0.1-1.8,0.3c-0.5,0.3-1,0.7-1.3,1.2s-0.5,1.1-0.6,1.8
					c-0.1,0.7,0,1.3,0.3,1.9s0.6,1,1.1,1.4s1.1,0.6,1.8,0.6c0.5,0,1,0,1.5-0.1s1-0.3,1.3-0.5l1.8,0.4l-1.6,7.8l-8.3-0.7l0.1-1.7
					l6.7,0.5l0.9-4.7H232c-0.3,0.2-0.8,0.4-1.3,0.5s-1,0.2-1.6,0.1c-1-0.1-1.8-0.4-2.6-0.9c-0.7-0.5-1.3-1.2-1.7-2s-0.5-1.8-0.4-2.8
					s0.4-1.9,0.9-2.7c0.5-0.8,1.2-1.3,2-1.7C228.4,441.2,229.3,441.1,230.3,441.2z"/>
			</g>
		</g>
		<g>
			<g class="st5">
				<path class="st6" d="M267.8,458.5l-1.4-15.9l1.9-0.2l1.3,13.9h0.1l3.7-2.9l0.2,2l-3.7,3L267.8,458.5z"/>
				<path class="st6" d="M256.5,443.2c1.2-0.1,2.2,0.1,3.1,0.7s1.6,1.4,2.1,2.6s0.9,2.6,1.1,4.4c0.2,1.7,0.1,3.2-0.3,4.5
					c-0.3,1.3-0.9,2.3-1.6,3c-0.8,0.7-1.7,1.1-2.9,1.2c-1.2,0.1-2.2-0.1-3.1-0.7c-0.9-0.6-1.6-1.4-2.2-2.6c-0.5-1.2-0.9-2.6-1.1-4.4
					c-0.2-1.7-0.1-3.2,0.3-4.5c0.3-1.3,0.9-2.2,1.6-3C254.4,443.7,255.4,443.3,256.5,443.2z M256.7,444.9c-1.2,0.1-2,0.7-2.6,1.9
					c-0.5,1.2-0.7,2.8-0.5,4.9c0.1,1.4,0.4,2.5,0.8,3.5c0.4,0.9,0.9,1.6,1.5,2.1c0.6,0.5,1.3,0.7,2,0.6c1.2-0.1,2-0.8,2.5-1.9
					c0.5-1.2,0.7-2.8,0.5-4.9c-0.1-1.4-0.4-2.5-0.8-3.5c-0.4-0.9-0.9-1.6-1.5-2.1C258.2,445.1,257.5,444.9,256.7,444.9z"/>
			</g>
		</g>
		<g>
			<g class="st5">
				<path class="st6" d="M306.9,434.7l0.4,1.4l-3.7,6.9c-0.4,0.8-0.8,1.5-1,2.1c-0.3,0.6-0.4,1.1-0.5,1.6s-0.1,1,0.1,1.4
					c0.1,0.5,0.4,1,0.8,1.3s0.8,0.5,1.3,0.6s1,0.1,1.6-0.1s1.1-0.4,1.5-0.8s0.6-0.8,0.8-1.3c0.1-0.5,0.1-1,0-1.6l1.8-0.5
					c0.2,0.9,0.2,1.8,0,2.6c-0.2,0.8-0.7,1.5-1.3,2c-0.6,0.6-1.4,1-2.3,1.2s-1.8,0.2-2.6,0c-0.8-0.2-1.5-0.6-2-1.1
					c-0.6-0.5-1-1.2-1.2-2c-0.1-0.6-0.2-1.2-0.1-1.7c0.1-0.6,0.3-1.3,0.6-2.1c0.3-0.8,0.8-1.8,1.5-3l2.5-4.6v-0.1l-7.2,1.9l-0.4-1.7
					L306.9,434.7z"/>
				<path class="st6" d="M288.7,439.2c1-0.3,1.9-0.3,2.8-0.2c0.9,0.1,1.6,0.5,2.2,1s1,1.1,1.3,1.9l-1.9,0.5
					c-0.2-0.5-0.5-0.9-0.8-1.2s-0.9-0.5-1.4-0.5c-0.5-0.1-1.1,0-1.7,0.1c-0.7,0.2-1.2,0.4-1.7,0.8s-0.8,0.8-1,1.3s-0.2,1-0.1,1.6
					s0.4,1,0.8,1.4s0.9,0.6,1.5,0.7s1.3,0.1,2.1-0.1l1.2-0.3l0.4,1.7l-1.2,0.3c-0.6,0.2-1.1,0.4-1.5,0.8c-0.4,0.3-0.7,0.7-0.9,1.2
					c-0.2,0.5-0.2,1,0,1.5c0.1,0.5,0.4,1,0.7,1.3s0.7,0.5,1.2,0.7c0.5,0.1,1,0.1,1.6-0.1c0.5-0.1,1-0.4,1.4-0.7
					c0.4-0.3,0.7-0.7,0.9-1.1c0.2-0.4,0.3-0.9,0.1-1.4l1.8-0.5c0.2,0.8,0.1,1.6-0.2,2.3c-0.3,0.7-0.8,1.4-1.4,1.9
					c-0.7,0.5-1.4,0.9-2.3,1.1c-1,0.2-1.8,0.3-2.6,0.1s-1.4-0.6-2-1.1c-0.5-0.5-0.9-1.2-1.1-1.9c-0.2-0.9-0.2-1.7,0.1-2.4
					c0.3-0.7,0.8-1.3,1.5-1.8V448c-1,0.1-1.9-0.1-2.6-0.7c-0.7-0.5-1.2-1.3-1.5-2.3c-0.2-0.8-0.2-1.7,0.1-2.4
					c0.3-0.8,0.8-1.5,1.5-2.1C286.8,439.8,287.7,439.4,288.7,439.2z"/>
			</g>
		</g>
		<g>
			<g class="st5">
				<path class="st6" d="M326.6,426.5c1-0.4,1.9-0.7,2.8-0.6c0.9,0,1.7,0.2,2.4,0.7c0.7,0.4,1.2,1,1.6,1.8c0.3,0.6,0.4,1.2,0.4,1.9
					s-0.2,1.2-0.4,1.8c-0.3,0.5-0.6,1-1.1,1.3v0.1c0.8-0.1,1.5,0,2.2,0.4s1.2,1,1.5,1.8c0.3,0.7,0.5,1.5,0.3,2.2s-0.4,1.5-0.9,2.1
					s-1.2,1.1-2.1,1.5c-0.8,0.4-1.7,0.6-2.5,0.5c-0.8,0-1.5-0.3-2.2-0.7c-0.6-0.4-1.1-1-1.5-1.7c-0.3-0.8-0.4-1.6-0.3-2.4
					s0.5-1.4,1.1-1.9v-0.1c-0.6,0.1-1.1,0.1-1.7,0c-0.6-0.2-1.1-0.5-1.6-0.9s-0.9-0.9-1.2-1.5c-0.4-0.8-0.5-1.6-0.3-2.4
					s0.5-1.5,1.1-2.2C324.8,427.5,325.6,427,326.6,426.5z M327.3,428.1c-0.7,0.3-1.2,0.7-1.6,1.1s-0.6,0.9-0.7,1.4s0,1,0.2,1.5
					c0.3,0.5,0.6,1,1.1,1.3s1,0.5,1.6,0.5s1.2-0.1,1.8-0.4c0.6-0.3,1.1-0.7,1.5-1.1c0.4-0.5,0.6-1,0.7-1.5s0-1.1-0.2-1.6
					s-0.6-0.9-1-1.2s-0.9-0.4-1.5-0.4C328.6,427.7,328,427.8,327.3,428.1z M330.4,435c-0.5,0.2-0.9,0.5-1.3,0.9
					c-0.3,0.4-0.5,0.8-0.6,1.3s0,1,0.2,1.5s0.5,0.9,0.9,1.1c0.4,0.3,0.8,0.4,1.3,0.4s1-0.1,1.5-0.3c0.5-0.2,1-0.6,1.3-0.9
					s0.5-0.8,0.6-1.3s0-0.9-0.3-1.4c-0.2-0.5-0.5-0.9-0.9-1.2c-0.4-0.3-0.9-0.4-1.4-0.4C331.5,434.7,330.9,434.8,330.4,435z"/>
			</g>
		</g>
		<g>
			<g class="st5">
				<path class="st6" d="M360,405.2c0.9-0.6,1.7-0.9,2.6-1.1s1.7-0.1,2.4,0.2c0.7,0.3,1.4,0.7,1.9,1.4l-1.6,1.1
					c-0.3-0.4-0.7-0.7-1.2-0.8s-1-0.1-1.5,0s-1.1,0.3-1.6,0.7c-0.6,0.4-1,0.8-1.3,1.3s-0.5,1-0.5,1.5s0.1,1,0.5,1.5
					c0.3,0.5,0.7,0.8,1.2,1s1,0.3,1.7,0.2c0.6-0.1,1.2-0.4,1.9-0.8l1.1-0.7l1,1.4l-1.1,0.7c-0.5,0.4-0.9,0.8-1.2,1.2
					s-0.4,0.9-0.4,1.4s0.2,1,0.5,1.4s0.7,0.8,1.1,1s0.9,0.3,1.4,0.2s1-0.3,1.5-0.6c0.5-0.3,0.8-0.7,1.1-1.1c0.3-0.4,0.5-0.9,0.5-1.4
					s-0.1-1-0.3-1.4l1.6-1c0.4,0.7,0.6,1.5,0.6,2.3s-0.3,1.5-0.7,2.3c-0.4,0.7-1,1.3-1.8,1.9s-1.6,0.9-2.4,0.9
					c-0.8,0.1-1.6-0.1-2.2-0.4c-0.7-0.3-1.2-0.8-1.7-1.4c-0.5-0.7-0.7-1.5-0.7-2.3s0.3-1.5,0.9-2.2l-0.1-0.1
					c-0.9,0.4-1.8,0.5-2.7,0.3c-0.9-0.3-1.6-0.8-2.1-1.6c-0.5-0.7-0.7-1.5-0.7-2.3s0.2-1.6,0.7-2.4
					C358.5,406.4,359.2,405.7,360,405.2z"/>
				<path class="st6" d="M348.6,412.9c1-0.7,2-1,3-0.9s2.1,0.5,3.1,1.3s2.1,1.9,3,3.3c1,1.4,1.6,2.8,1.9,4c0.3,1.3,0.3,2.4,0,3.4
					s-1,1.8-1.9,2.5c-1,0.7-2,0.9-3,0.9c-1.1-0.1-2.1-0.5-3.2-1.3c-1-0.8-2.1-1.9-3-3.3c-1-1.4-1.6-2.8-1.9-4.1
					c-0.3-1.3-0.3-2.4,0-3.4C346.9,414.4,347.6,413.5,348.6,412.9z M349.5,414.3c-1,0.7-1.4,1.6-1.3,2.9s0.7,2.8,1.9,4.5
					c0.8,1.1,1.6,2,2.3,2.7c0.8,0.6,1.6,1,2.3,1.1c0.7,0.1,1.4,0,2.1-0.5c1-0.6,1.4-1.6,1.3-2.9s-0.7-2.8-1.9-4.5
					c-0.8-1.1-1.6-2-2.3-2.7c-0.8-0.6-1.5-1-2.3-1.1C350.9,413.7,350.2,413.9,349.5,414.3z"/>
			</g>
		</g>
		<g>
			<g class="st5">
				<path class="st6" d="M396.6,400.2l-11.1-11.6l1.4-1.3l9.7,10.1l0.1-0.1l1-4.6l1.4,1.4l-1,4.7L396.6,400.2z"/>
				<path class="st6" d="M389.2,407.3l-11.1-11.6l1.4-1.3l9.7,10.1l0.1-0.1l1-4.6l1.4,1.4l-1.1,4.7L389.2,407.3z"/>
			</g>
		</g>
		<g>
			<g class="st5">
				<path class="st6" d="M405.2,357.5c0.6-0.8,1.3-1.5,2.1-1.9c0.8-0.4,1.5-0.7,2.3-0.7s1.5,0.2,2.2,0.7l-1.2,1.6
					c-0.4-0.3-0.9-0.4-1.4-0.4s-1,0.2-1.4,0.5c-0.5,0.3-0.9,0.7-1.2,1.2c-0.4,0.6-0.7,1.1-0.8,1.7c-0.1,0.6-0.1,1.1,0.1,1.6
					s0.5,0.9,0.9,1.2c0.5,0.3,1,0.5,1.5,0.6c0.5,0,1.1-0.1,1.6-0.4s1-0.8,1.5-1.4l0.8-1l1.4,1l-0.8,1c-0.4,0.5-0.6,1-0.7,1.6
					c-0.1,0.5-0.1,1,0.1,1.5s0.5,0.9,0.9,1.2c0.4,0.3,0.9,0.5,1.4,0.5s0.9,0,1.4-0.3c0.4-0.2,0.8-0.6,1.2-1c0.3-0.4,0.6-0.9,0.7-1.4
					s0.1-1,0-1.5s-0.4-0.9-0.8-1.2l1.1-1.5c0.7,0.5,1.1,1.2,1.3,1.9c0.2,0.8,0.3,1.5,0.1,2.4c-0.2,0.8-0.5,1.6-1.1,2.4
					s-1.3,1.4-2,1.7c-0.7,0.3-1.5,0.5-2.2,0.4s-1.4-0.3-2-0.8c-0.7-0.5-1.2-1.2-1.4-1.9c-0.2-0.8-0.2-1.5,0.1-2.3l-0.1-0.1
					c-0.7,0.7-1.5,1.1-2.4,1.1s-1.7-0.2-2.6-0.8c-0.7-0.5-1.2-1.2-1.5-2s-0.3-1.6-0.2-2.5C404.2,359.1,404.6,358.3,405.2,357.5z"/>
				<path class="st6" d="M397,368.6c0.4-0.5,0.9-1,1.5-1.4s1.3-0.6,2-0.7s1.7,0,2.6,0.3c1,0.3,2.1,0.9,3.3,1.8
					c1.1,0.8,2.1,1.7,2.8,2.6c0.7,0.9,1.2,1.7,1.5,2.6s0.4,1.7,0.3,2.5s-0.4,1.6-1,2.3c-0.5,0.7-1.1,1.3-1.9,1.6
					c-0.7,0.4-1.4,0.5-2.2,0.5c-0.8,0-1.5-0.2-2.3-0.6l1.1-1.5c0.7,0.3,1.4,0.4,2.1,0.2s1.3-0.5,1.8-1.2c0.7-1,0.9-2.1,0.4-3.3
					c-0.4-1.2-1.5-2.4-3-3.6l-0.1,0.1c0.2,0.5,0.3,1,0.3,1.5s-0.1,1-0.2,1.5c-0.2,0.5-0.4,1-0.7,1.4c-0.5,0.7-1.2,1.3-2,1.6
					c-0.8,0.3-1.7,0.5-2.6,0.4s-1.8-0.5-2.6-1.1c-0.8-0.6-1.4-1.3-1.8-2.1s-0.6-1.7-0.5-2.7C396,370.4,396.3,369.5,397,368.6z
					 M398.4,369.7c-0.4,0.5-0.6,1.1-0.7,1.7s0.1,1.2,0.3,1.8c0.3,0.6,0.7,1.1,1.2,1.5s1.1,0.6,1.7,0.7s1.2,0,1.8-0.2
					c0.6-0.2,1-0.6,1.4-1.1c0.3-0.4,0.5-0.8,0.6-1.3s0.1-0.9,0-1.4s-0.2-0.9-0.5-1.3c-0.2-0.4-0.6-0.8-0.9-1
					c-0.5-0.4-1.1-0.6-1.7-0.7s-1.2,0-1.8,0.2C399.3,368.8,398.8,369.1,398.4,369.7z"/>
			</g>
		</g>
		<g>
			<g class="st5">
				<path class="st6" d="M435.2,338.5l-14.3-7.2l0.9-1.7l12.5,6.3v-0.1l-0.6-4.7l1.8,0.9l0.6,4.8L435.2,338.5z"/>
				<path class="st6" d="M416.2,340.1c0.5-0.9,1-1.7,1.7-2.2c0.7-0.6,1.4-0.9,2.2-1s1.5,0,2.3,0.3l-0.9,1.8c-0.5-0.2-1-0.2-1.4-0.1
					c-0.5,0.1-0.9,0.3-1.3,0.7s-0.8,0.8-1,1.4c-0.3,0.6-0.5,1.2-0.5,1.8c0,0.6,0.1,1.1,0.3,1.6c0.2,0.5,0.6,0.8,1.1,1.1
					c0.5,0.3,1.1,0.4,1.6,0.3s1-0.3,1.5-0.7c0.5-0.4,0.9-0.9,1.3-1.7l0.6-1.1l1.5,0.8l-0.6,1.1c-0.3,0.6-0.4,1.1-0.4,1.7
					c0,0.5,0.1,1,0.4,1.4s0.6,0.8,1.1,1s1,0.3,1.4,0.3c0.5,0,0.9-0.2,1.3-0.5s0.7-0.7,1-1.2c0.2-0.5,0.4-1,0.4-1.5s0-1-0.2-1.5
					c-0.2-0.4-0.5-0.8-1-1.1l0.8-1.7c0.7,0.4,1.3,1,1.6,1.7c0.4,0.7,0.5,1.5,0.5,2.3s-0.3,1.7-0.7,2.5c-0.4,0.9-1,1.6-1.7,2
					c-0.7,0.5-1.4,0.7-2.1,0.7c-0.8,0-1.5-0.1-2.1-0.4c-0.8-0.4-1.4-1-1.7-1.7s-0.5-1.5-0.3-2.3l-0.1-0.1c-0.6,0.8-1.3,1.3-2.2,1.5
					c-0.9,0.2-1.8,0.1-2.7-0.4c-0.8-0.4-1.4-1-1.8-1.7s-0.6-1.6-0.6-2.5C415.5,342,415.7,341,416.2,340.1z"/>
			</g>
		</g>
		<g>
			<g class="st5">
				<path class="st6" d="M432.7,294.7l1.3,0.4l4,6.7c0.5,0.8,0.9,1.4,1.3,2c0.4,0.5,0.7,1,1.1,1.3s0.8,0.5,1.3,0.7s1,0.2,1.5,0
					c0.5-0.1,0.9-0.4,1.2-0.8s0.6-0.8,0.8-1.4c0.2-0.6,0.2-1.1,0.1-1.6s-0.3-0.9-0.7-1.3s-0.8-0.6-1.4-0.8l0.5-1.8
					c0.9,0.3,1.6,0.7,2.2,1.3c0.6,0.6,0.9,1.3,1.1,2.2c0.2,0.8,0.1,1.7-0.2,2.6c-0.3,0.9-0.7,1.6-1.3,2.2c-0.6,0.6-1.3,1-2,1.2
					c-0.8,0.2-1.5,0.2-2.3-0.1c-0.6-0.2-1.1-0.4-1.6-0.8s-1-0.9-1.5-1.6s-1.1-1.6-1.8-2.8l-2.6-4.6h-0.1l-2.2,7.1l-1.6-0.5
					L432.7,294.7z"/>
				<path class="st6" d="M428.7,308l11.5,10.9h0.1l2.4-7.9l1.6,0.5l-3,9.8l-1.7-0.5l-11.5-10.9L428.7,308z"/>
			</g>
		</g>
		<g>
			<g class="st5">
				<path class="st6" d="M434.6,273.1c0.1-0.6,0.3-1.3,0.6-1.9c0.3-0.6,0.8-1.2,1.4-1.6c0.6-0.5,1.5-0.8,2.5-1s2.2-0.2,3.7,0
					c1.4,0.2,2.6,0.5,3.7,0.9s1.9,0.9,2.6,1.5s1.2,1.3,1.5,2c0.3,0.8,0.4,1.6,0.3,2.5s-0.4,1.7-0.8,2.3c-0.4,0.6-1,1.2-1.7,1.5
					c-0.7,0.4-1.5,0.5-2.3,0.6l0.2-1.9c0.7-0.1,1.4-0.3,1.9-0.8c0.5-0.4,0.9-1.1,1-1.9c0.2-1.2-0.2-2.3-1.2-3.1
					c-1-0.8-2.4-1.4-4.4-1.7v0.1c0.4,0.3,0.7,0.7,1,1.2c0.3,0.4,0.4,0.9,0.5,1.4s0.1,1,0.1,1.6c-0.1,0.9-0.5,1.7-1,2.4
					c-0.6,0.7-1.3,1.2-2.1,1.6c-0.9,0.4-1.8,0.5-2.8,0.3c-1-0.1-1.8-0.5-2.6-1s-1.3-1.2-1.7-2.1S434.4,274.1,434.6,273.1z
					 M436.3,273.3c-0.1,0.7,0,1.3,0.3,1.8c0.3,0.6,0.6,1,1.1,1.4s1.1,0.6,1.8,0.7c0.7,0.1,1.3,0,1.9-0.2s1.1-0.6,1.4-1
					c0.4-0.5,0.6-1,0.7-1.7c0.1-0.5,0-1-0.1-1.4s-0.4-0.9-0.6-1.2c-0.3-0.4-0.6-0.7-1.1-0.9s-0.8-0.4-1.3-0.4
					c-0.6-0.1-1.2,0-1.8,0.2c-0.6,0.2-1.1,0.6-1.5,1C436.6,272,436.4,272.6,436.3,273.3z"/>
			</g>
		</g>
		<g>
			<g class="st5">
				<path class="st6" d="M436,234.3c0-1,0.1-2,0.4-2.8s0.8-1.5,1.4-2s1.3-0.8,2.2-0.9l0.1,2c-0.5,0.1-1,0.3-1.3,0.6
					c-0.4,0.3-0.6,0.7-0.8,1.3c-0.2,0.5-0.3,1.1-0.2,1.7c0,0.7,0.2,1.3,0.4,1.8c0.3,0.5,0.6,0.9,1,1.2s0.9,0.4,1.5,0.4
					s1.1-0.2,1.5-0.5s0.8-0.7,1-1.3s0.3-1.3,0.3-2.1l-0.1-1.3l1.7-0.1l0.1,1.3c0,0.6,0.2,1.2,0.4,1.7c0.2,0.5,0.6,0.8,1,1.1
					s0.9,0.4,1.5,0.4c0.5,0,1-0.2,1.4-0.4c0.4-0.3,0.7-0.6,0.9-1c0.2-0.4,0.3-1,0.3-1.5c0-0.6-0.1-1.1-0.4-1.5
					c-0.2-0.5-0.5-0.9-0.9-1.2s-0.8-0.4-1.4-0.4l-0.1-1.9c0.8,0,1.6,0.2,2.2,0.7c0.7,0.4,1.2,1,1.6,1.8s0.6,1.6,0.6,2.5
					c0,1-0.1,1.8-0.5,2.6c-0.4,0.7-0.9,1.3-1.5,1.7s-1.3,0.6-2.1,0.7c-0.9,0-1.7-0.2-2.3-0.6c-0.7-0.4-1.1-1.1-1.4-1.9h-0.1
					c-0.1,1-0.5,1.8-1.2,2.4c-0.7,0.6-1.5,0.9-2.5,1c-0.9,0-1.7-0.2-2.4-0.6c-0.7-0.4-1.3-1.1-1.7-1.9
					C436.3,236.2,436.1,235.3,436,234.3z"/>
				<path class="st6" d="M436.9,250l3.8-0.2h0.7l11.5-0.5l0.1,1.8l-16,0.6L436.9,250z M439.9,242.3l1.6-0.1l11.4,6.6v1.2l-2.5,0.1
					v-0.8l-8.6-5h-0.1l0.4,9.5l-1.7,0.1L439.9,242.3z"/>
			</g>
		</g>
		<g>
			<g class="st5">
				<path class="st6" d="M447.1,203.3l-15.6,3.4l-0.4-1.9l13.7-2.9v-0.1l-3.4-3.3l1.9-0.4l3.4,3.4L447.1,203.3z"/>
				<path class="st6" d="M432.5,211.6l15.3,4h0.1l-1.7-8.1l1.7-0.4l2.1,10l-1.8,0.4l-15.4-4L432.5,211.6z"/>
			</g>
		</g>
		<g>
			<g class="st5">
				<path class="st6" d="M419.1,169.4l1.3-0.5l7.3,2.8c0.9,0.3,1.6,0.6,2.2,0.8s1.2,0.3,1.7,0.3s1-0.1,1.4-0.2
					c0.5-0.2,0.9-0.5,1.2-0.9c0.3-0.4,0.4-0.9,0.5-1.4c0-0.5-0.1-1-0.3-1.6c-0.2-0.6-0.5-1-0.9-1.4s-0.9-0.5-1.4-0.6s-1.1,0-1.6,0.2
					l-0.7-1.7c0.9-0.3,1.7-0.4,2.5-0.3c0.8,0.1,1.5,0.5,2.2,1c0.6,0.5,1.1,1.3,1.5,2.1c0.3,0.9,0.5,1.7,0.4,2.5s-0.4,1.5-0.9,2.2
					c-0.5,0.6-1.1,1.1-1.9,1.4c-0.5,0.2-1.1,0.3-1.7,0.3s-1.3-0.1-2.1-0.3c-0.8-0.2-1.9-0.6-3.1-1.1l-4.9-1.9h-0.1l2.8,6.9l-1.6,0.6
					L419.1,169.4z"/>
				<path class="st6" d="M425.7,186.5c-0.3-0.9-0.5-1.7-0.4-2.5s0.3-1.5,0.7-2.2c0.4-0.6,1-1.1,1.7-1.5l0.7,1.7
					c-0.6,0.3-1.1,0.9-1.3,1.6c-0.2,0.7-0.2,1.5,0.1,2.2c0.2,0.6,0.6,1.1,1.1,1.5s1,0.6,1.6,0.7c0.6,0.1,1.2,0,1.9-0.3
					c0.6-0.3,1.2-0.6,1.6-1.1s0.6-1,0.7-1.6s0-1.2-0.2-1.9c-0.2-0.5-0.4-0.9-0.8-1.3c-0.3-0.4-0.7-0.7-1-1l-0.5-1.8l7.7-2l3.1,7.7
					l-1.6,0.6l-2.5-6.2l-4.6,1.2v0.1c0.4,0.2,0.7,0.5,1.1,0.9s0.6,0.8,0.8,1.3c0.4,0.9,0.5,1.8,0.3,2.7c-0.1,0.9-0.5,1.7-1.1,2.4
					s-1.4,1.3-2.3,1.6c-0.9,0.4-1.9,0.5-2.8,0.4s-1.7-0.5-2.5-1C426.6,188.2,426.1,187.4,425.7,186.5z"/>
			</g>
		</g>
		<g>
			<g class="st5">
				<path class="st6" d="M406.2,144.5l1.2-0.7l7.7,1.5c0.9,0.2,1.7,0.3,2.3,0.4c0.6,0.1,1.2,0.1,1.7,0s0.9-0.2,1.3-0.5
					c0.5-0.3,0.8-0.7,1-1.1c0.2-0.4,0.3-0.9,0.2-1.4c-0.1-0.5-0.2-1-0.5-1.5s-0.7-0.9-1.2-1.2s-0.9-0.4-1.5-0.3
					c-0.5,0-1,0.2-1.6,0.5l-1-1.6c0.8-0.5,1.6-0.7,2.4-0.7s1.6,0.2,2.3,0.6c0.7,0.4,1.3,1,1.8,1.8s0.8,1.6,0.8,2.4
					c0,0.8-0.1,1.6-0.5,2.3s-0.9,1.3-1.6,1.7c-0.5,0.3-1,0.5-1.6,0.6s-1.3,0.1-2.2,0s-1.9-0.3-3.3-0.5l-5.2-1.1l-0.1,0.1l3.9,6.3
					L411,153L406.2,144.5z"/>
			</g>
		</g>
		<g>
			<g class="st5">
				<path class="st6" d="M385.6,115.9l1.1-0.9l7.8,0.1c0.9,0,1.7,0,2.3,0c0.6,0,1.2-0.1,1.7-0.3c0.5-0.1,0.9-0.4,1.2-0.7
					c0.4-0.4,0.7-0.8,0.8-1.3c0.1-0.5,0.1-1,0-1.5s-0.4-1-0.8-1.4c-0.4-0.5-0.9-0.8-1.3-1c-0.5-0.2-1-0.2-1.5-0.1s-1,0.4-1.4,0.8
					l-1.2-1.4c0.7-0.6,1.5-1,2.3-1.1s1.6-0.1,2.4,0.2c0.8,0.3,1.5,0.8,2.1,1.5s1,1.5,1.2,2.3s0.2,1.6-0.1,2.3
					c-0.2,0.8-0.7,1.4-1.3,1.9c-0.4,0.4-0.9,0.7-1.5,0.9c-0.6,0.2-1.3,0.3-2.1,0.4c-0.9,0.1-2,0.1-3.3,0l-5.3-0.2l-0.1,0.1l4.9,5.6
					l-1.3,1.1L385.6,115.9z"/>
				<path class="st6" d="M410.2,119.6l-12,10.6l-1.3-1.5l10.5-9.2l-0.1-0.1l-4.5-1.2l1.5-1.3l4.6,1.2L410.2,119.6z"/>
			</g>
		</g>
		<g>
			<g class="st5">
				<path class="st6" d="M366.9,93.1l1-1.2l12.5-4.2l0.9,0.7l-1.6,1.9l-0.6-0.5l-9.4,3.2l-0.1,0.1L377,99l-1.1,1.3L366.9,93.1z
					 M370.7,100.4l2.4-2.9l0.5-0.6l7.2-8.9l1.4,1.2l-10.1,12.4L370.7,100.4z"/>
			</g>
		</g>
		<g>
			<g class="st5">
				<path class="st6" d="M345.9,64.6L338,78.5l-1.7-1l6.9-12.2h-0.1l-4.7,0.3l1-1.7l4.8-0.4L345.9,64.6z"/>
				<path class="st6" d="M354.5,69.2c0.6,0.3,1.1,0.8,1.5,1.3c0.5,0.5,0.8,1.2,1,1.9c0.2,0.8,0.2,1.6,0,2.7c-0.2,1-0.6,2.2-1.4,3.4
					c-0.7,1.2-1.4,2.3-2.2,3.1c-0.8,0.8-1.6,1.4-2.4,1.9c-0.8,0.4-1.6,0.6-2.4,0.6s-1.6-0.2-2.4-0.7c-0.8-0.4-1.4-1-1.8-1.6
					c-0.4-0.7-0.7-1.4-0.8-2.1c-0.1-0.8,0-1.6,0.3-2.4l1.7,0.9c-0.2,0.7-0.2,1.4,0,2.1s0.7,1.2,1.4,1.6c1.1,0.6,2.2,0.6,3.3,0
					c1.2-0.6,2.2-1.7,3.2-3.5l-0.1-0.1c-0.5,0.2-1,0.4-1.5,0.5s-1,0.1-1.5,0s-1-0.3-1.5-0.5c-0.8-0.5-1.4-1.1-1.9-1.8
					c-0.4-0.8-0.7-1.6-0.7-2.5s0.2-1.8,0.8-2.7c0.5-0.9,1.1-1.5,1.9-2s1.6-0.8,2.6-0.8C352.6,68.4,353.5,68.6,354.5,69.2z
					 M353.6,70.7c-0.6-0.3-1.2-0.5-1.8-0.4c-0.6,0-1.2,0.2-1.7,0.5s-1,0.8-1.3,1.4s-0.5,1.2-0.5,1.8c0,0.6,0.1,1.2,0.4,1.7
					s0.7,1,1.3,1.3c0.4,0.2,0.9,0.4,1.3,0.4c0.5,0,0.9,0,1.4-0.2c0.4-0.1,0.9-0.4,1.2-0.6c0.4-0.3,0.7-0.6,0.9-1.1
					c0.3-0.5,0.5-1.1,0.5-1.8c0-0.6-0.1-1.2-0.4-1.8C354.6,71.4,354.2,71,353.6,70.7z"/>
			</g>
		</g>
		<g>
			<g class="st5">
				<path class="st6" d="M314.2,49.1l-5.4,15l-1.8-0.7l4.8-13.1h-0.1l-4.6,1.1l0.7-1.9l4.7-1.1L314.2,49.1z"/>
				<path class="st6" d="M317.7,67.7c-0.9-0.3-1.6-0.8-2.1-1.4c-0.6-0.6-0.9-1.3-1.1-2c-0.2-0.7-0.2-1.5,0.1-2.3l1.8,0.6
					c-0.2,0.7-0.1,1.4,0.3,2c0.4,0.6,1,1.1,1.7,1.4c0.6,0.2,1.2,0.3,1.8,0.2c0.6-0.1,1.1-0.4,1.6-0.8s0.8-0.9,1-1.6
					c0.2-0.7,0.3-1.3,0.2-1.9c-0.1-0.6-0.3-1.2-0.7-1.6c-0.4-0.5-0.9-0.8-1.5-1.1c-0.5-0.2-1-0.3-1.5-0.3s-1,0-1.4,0.1l-1.6-0.8
					l3.6-7.1l7.8,2.8l-0.6,1.6l-6.3-2.3l-2.1,4.2h0.1c0.4-0.1,0.9-0.2,1.4-0.2s1,0.1,1.5,0.3c0.9,0.3,1.7,0.8,2.2,1.5
					c0.6,0.7,0.9,1.5,1.1,2.4c0.1,0.9,0,1.9-0.3,2.8c-0.3,1-0.9,1.7-1.6,2.3c-0.7,0.6-1.5,1-2.4,1.1C319.6,68.1,318.6,68,317.7,67.7
					z"/>
			</g>
		</g>
		<g>
			<g class="st5">
				<path class="st6" d="M274.9,55.7c-1-0.2-1.9-0.5-2.6-1s-1.3-1.1-1.6-1.8c-0.4-0.7-0.5-1.5-0.4-2.3l1.9,0.4c-0.1,0.5,0,1,0.3,1.4
					c0.2,0.4,0.6,0.8,1.1,1.1s1,0.5,1.6,0.6c0.7,0.1,1.3,0.1,1.9,0s1-0.4,1.4-0.8c0.4-0.4,0.6-0.8,0.7-1.4c0.1-0.6,0.1-1.1-0.1-1.6
					s-0.6-0.9-1.1-1.3c-0.5-0.4-1.2-0.6-2-0.7l-1.3-0.2l0.3-1.7l1.3,0.2c0.6,0.1,1.2,0.1,1.7,0s0.9-0.4,1.3-0.7
					c0.3-0.4,0.6-0.8,0.7-1.4c0.1-0.5,0.1-1-0.1-1.5c-0.2-0.4-0.4-0.8-0.8-1.1s-0.9-0.5-1.4-0.6s-1.1-0.1-1.6,0s-1,0.3-1.3,0.6
					c-0.4,0.3-0.6,0.7-0.7,1.3l-1.8-0.3c0.2-0.8,0.6-1.5,1.1-2c0.6-0.5,1.3-0.9,2.1-1.1c0.8-0.2,1.7-0.2,2.6-0.1
					c1,0.2,1.8,0.5,2.4,1s1.1,1.1,1.3,1.8s0.3,1.4,0.2,2.2c-0.2,0.9-0.5,1.6-1.1,2.1s-1.3,0.9-2.1,1v0.1c1,0.3,1.7,0.9,2.1,1.7
					s0.6,1.7,0.4,2.7c-0.2,0.9-0.5,1.6-1.1,2.2c-0.6,0.6-1.3,1-2.2,1.3C276.8,55.8,275.9,55.9,274.9,55.7z"/>
				<path class="st6" d="M283.3,57l0.3-1.4l6.2-4.7c0.7-0.6,1.3-1,1.8-1.5c0.5-0.4,0.9-0.8,1.1-1.2c0.3-0.4,0.5-0.8,0.5-1.3
					c0.1-0.6,0.1-1.1-0.1-1.5c-0.2-0.5-0.5-0.8-0.9-1.1s-0.9-0.5-1.5-0.6s-1.2-0.1-1.6,0.1c-0.5,0.2-0.9,0.4-1.2,0.9
					s-0.5,0.9-0.7,1.5l-1.8-0.3c0.2-0.9,0.5-1.7,1.1-2.3s1.2-1.1,2-1.3c0.8-0.3,1.7-0.3,2.6-0.1s1.7,0.5,2.3,1s1.1,1.1,1.4,1.9
					c0.3,0.7,0.4,1.5,0.2,2.3c-0.1,0.6-0.3,1.1-0.6,1.6c-0.3,0.5-0.8,1.1-1.4,1.6c-0.6,0.6-1.5,1.3-2.6,2.1l-4.2,3.1v0.1l7.3,1.3
					l-0.3,1.7L283.3,57z"/>
			</g>
		</g>
		<path class="st1" d="M245.4,84.2C155,85.4,82.6,159.6,83.8,250s75.3,162.8,165.7,161.6c90.4-1.1,162.8-75.3,161.6-165.7l0,0
			C410,155.5,335.8,83.1,245.4,84.2z M248.9,364.2c-64.2,0.8-117-50.6-117.8-114.9c-0.8-64.2,50.6-117,114.9-117.8
			s117,50.6,117.8,114.9l0,0C364.6,310.7,313.2,363.4,248.9,364.2L248.9,364.2L248.9,364.2z"/>
		<path class="st2" d="M328.7,164.6l33-33.9c-31-30.4-72.9-47.2-116.3-46.5l0.6,47.3C276.9,131.1,306.6,143,328.7,164.6z"/>
		<path class="st3" d="M202.5,90.5l12.8,45.6c3.6-1,7.3-1.9,11.1-2.6c3.5-0.6,7-1.1,10.4-1.4l-4-47.2c-5,0.4-9.9,1.1-14.9,2
			C212.6,87.9,207.5,89.1,202.5,90.5z"/>
		<path class="st1" d="M176.6,100.3l20.3,42.8c3.4-1.6,6.9-3.1,10.5-4.5c3.3-1.2,6.7-2.2,10-3.1l-11.9-45.8
			c-4.8,1.3-9.6,2.8-14.4,4.5C186.2,96.1,181.3,98.1,176.6,100.3z"/>
		<path class="st3" d="M152.8,114.4l27.2,38.8c3.1-2.2,6.3-4.2,9.6-6.2c3.1-1.8,6.2-3.3,9.3-4.8L179.5,99c-4.5,2.1-9,4.4-13.4,6.9
			C161.5,108.5,157,111.4,152.8,114.4z"/>
		<path class="st1" d="M131.6,132.2l33.4,33.6c2.7-2.7,5.5-5.3,8.4-7.7c2.7-2.2,5.5-4.3,8.4-6.3l-26.5-39.3
			c-4.1,2.8-8.1,5.8-12.1,9.1C139.2,125,135.3,128.6,131.6,132.2z"/>
		<path class="st3" d="M113.8,153.4l38.5,27.5c2.2-3.1,4.5-6.1,7-9c2.3-2.7,4.7-5.2,7.2-7.6L133.8,130c-3.6,3.5-7,7.1-10.4,10.9
			C120.1,145,116.8,149.2,113.8,153.4z"/>
		<path class="st1" d="M99.8,177.3l42.6,20.6c1.6-3.4,3.4-6.8,5.4-10.1c1.8-3,3.8-5.9,5.8-8.7l-38-28.3c-3,4-5.7,8.2-8.4,12.6
			C104.5,168,102,172.6,99.8,177.3z"/>
		<path class="st3" d="M90,203.2l45.5,13.2c1-3.6,2.2-7.2,3.6-10.8c1.3-3.3,2.7-6.5,4.3-9.6l-42.2-21.5c-2.2,4.5-4.3,9-6.1,13.8
			C93.1,193.2,91.4,198.2,90,203.2z"/>
		<path class="st1" d="M84.7,230.3l47.1,5.3c0.4-3.7,1-7.5,1.8-11.3c0.7-3.5,1.6-6.8,2.6-10.2l-45.2-14c-1.4,4.8-2.7,9.6-3.7,14.6
			C86.1,220,85.3,225.2,84.7,230.3z"/>
		<path class="st3" d="M84.1,258l47.3-2.7c-0.2-3.8-0.3-7.6-0.2-11.4c0.1-3.5,0.4-7,0.9-10.5l-46.9-6.2c-0.6,4.9-1,10-1.2,15
			C83.7,247.6,83.8,252.8,84.1,258z"/>
		<path class="st1" d="M88.1,285.4l46.1-10.6c-0.9-3.7-1.6-7.4-2.1-11.2c-0.5-3.5-0.8-7-0.9-10.5l-47.3,1.8c0.2,5,0.7,10,1.3,15
			C86,275.2,86.9,280.3,88.1,285.4z"/>
		<path class="st3" d="M96.7,311.7l43.7-18.2c-1.5-3.5-2.8-7-4-10.7c-1.1-3.4-1.9-6.8-2.7-10.1l-46.3,9.7c1.1,4.9,2.3,9.7,3.8,14.6
			C92.9,302,94.7,306.9,96.7,311.7z"/>
		<path class="st1" d="M109.6,336.2l40-25.3c-2.1-3.2-4-6.5-5.7-9.9c-1.6-3.1-3-6.3-4.3-9.5l-44,17.4c1.9,4.6,3.9,9.2,6.2,13.7
			C104.2,327.3,106.8,331.8,109.6,336.2z"/>
		<path class="st3" d="M126.5,358.2l35.2-31.7c-2.5-2.8-5-5.7-7.3-8.8c-2.1-2.8-4.1-5.7-5.9-8.7L108,333.5c2.6,4.2,5.4,8.4,8.5,12.5
			C119.6,350.3,123,354.3,126.5,358.2z"/>
		<path class="st1" d="M146.8,377l29.3-37.2c-3-2.3-5.9-4.8-8.7-7.4c-2.6-2.4-5-5-7.3-7.6l-35.8,31c3.3,3.8,6.8,7.4,10.5,10.9
			C138.7,370.3,142.7,373.8,146.8,377z"/>
		<path class="st3" d="M170,392.1l22.6-41.6c-3.3-1.8-6.6-3.7-9.8-5.9c-2.9-2-5.7-4.1-8.4-6.2l-30,36.6c3.9,3.1,7.9,6.1,12.1,9
			C160.9,386.9,165.4,389.6,170,392.1z"/>
		<path class="st1" d="M195.4,403.1l15.3-44.8c-3.6-1.2-7.1-2.6-10.6-4.1c-3.2-1.5-6.3-3-9.4-4.7l-23.4,41.2
			c4.3,2.4,8.8,4.7,13.5,6.8C185.5,399.5,190.4,401.4,195.4,403.1z"/>
		<path class="st3" d="M222.2,409.6l7.5-46.7c-3.7-0.6-7.5-1.3-11.2-2.3c-3.4-0.9-6.8-1.9-10-3.1L192.4,402
			c4.7,1.7,9.5,3.1,14.4,4.4C212,407.8,217.1,408.9,222.2,409.6z"/>
		<path class="st1" d="M249.9,411.6l-0.5-47.4c-3.8,0.1-7.6,0-11.4-0.4c-3.5-0.3-7-0.8-10.4-1.3l-8.4,46.6c4.9,0.9,9.9,1.5,15,1.9
			C239.4,411.5,244.6,411.7,249.9,411.6z"/>
		<path class="st3" d="M277.4,408.9l-8.4-46.6c-3.7,0.7-7.5,1.2-11.3,1.6c-3.5,0.3-7,0.4-10.5,0.4l-0.4,47.4c5,0,10-0.2,15.1-0.6
			C267.1,410.5,272.3,409.8,277.4,408.9z"/>
		<path class="st1" d="M304.1,401.5L287.9,357c-3.6,1.3-7.2,2.5-10.9,3.4c-3.4,0.9-6.8,1.6-10.3,2.2l7.5,46.8
			c4.9-0.8,9.8-1.9,14.8-3.2C294.2,404.9,299.2,403.3,304.1,401.5z"/>
		<path class="st3" d="M329.1,389.8l-23.4-41.1c-3.3,1.9-6.7,3.6-10.2,5.2c-3.2,1.5-6.5,2.7-9.8,3.9l15.3,44.8
			c4.7-1.6,9.3-3.5,14-5.6C320,394.8,324.6,392.4,329.1,389.8z"/>
		<path class="st1" d="M351.9,374l-30-36.6c-2.9,2.4-5.9,4.7-9.1,6.9c-2.9,2-5.9,3.8-9,5.5l22.6,41.6c4.4-2.4,8.7-5,12.9-7.9
			C343.7,380.5,347.9,377.3,351.9,374z"/>
		<path class="st3" d="M371.6,354.6l-35.8-31c-2.5,2.9-5.1,5.6-7.8,8.3c-2.6,2.5-5.2,4.7-7.9,6.9l29.3,37.2
			c3.9-3.1,7.7-6.4,11.4-9.9C364.6,362.4,368.2,358.5,371.6,354.6z"/>
		<path class="st1" d="M387.8,332.1l-40.5-24.6c-1.9,3.2-4,6.4-6.3,9.5c-2.1,2.8-4.3,5.5-6.6,8.1l35.2,31.7
			c3.3-3.7,6.5-7.6,9.5-11.7C382.2,341,385.1,336.6,387.8,332.1z"/>
		<path class="st3" d="M400,307.3l-44-17.4c-1.4,3.5-2.9,7-4.6,10.4c-1.6,3.2-3.3,6.2-5.2,9.1l40,25.3c2.7-4.2,5.1-8.6,7.4-13.1
			C396,316.9,398.1,312.1,400,307.3z"/>
		<path class="st1" d="M407.8,280.7l-46.3-9.7c-0.8,3.7-1.7,7.4-2.8,11.1c-1,3.4-2.2,6.7-3.5,9.9l43.7,18.2
			c1.9-4.6,3.6-9.3,5.1-14.2C405.5,290.9,406.8,285.8,407.8,280.7z"/>
		<path class="st3" d="M411.1,253.2l-47.3-1.8c-0.1,3.8-0.4,7.6-0.9,11.4c-0.5,3.5-1.1,7-1.8,10.3l46.1,10.6c1.1-4.9,2-9.8,2.6-14.9
			C410.5,263.7,410.9,258.4,411.1,253.2z"/>
		<path class="st1" d="M409.6,225.6l-46.9,6.2c0.5,3.7,0.9,7.5,1,11.4c0.1,3.5,0.1,7-0.1,10.5l47.3,2.7c0.2-5,0.3-10,0.1-15.1
			C410.8,236,410.3,230.8,409.6,225.6z"/>
		<path class="st3" d="M403.5,198.6l-45.2,14c1.1,3.6,2.1,7.3,2.9,11.1c0.7,3.5,1.3,6.9,1.7,10.4l47-5.3c-0.6-4.9-1.4-9.9-2.5-14.9
			C406.4,208.6,405.1,203.5,403.5,198.6z"/>
		<path class="st1" d="M393,173l-42.2,21.5c1.7,3.3,3.3,6.8,4.8,10.4c1.3,3.3,2.4,6.6,3.4,9.9l45.5-13.2c-1.4-4.8-3-9.5-4.9-14.3
			C397.6,182.4,395.4,177.6,393,173z"/>
		<path class="st3" d="M378.3,149.6l-38,28.3c2.3,3,4.4,6.2,6.4,9.4c1.8,3,3.5,6.1,5,9.2l42.6-20.6c-2.2-4.5-4.6-8.9-7.3-13.2
			C384.4,158.1,381.4,153.7,378.3,149.6z"/>
		<path class="st1" d="M359.9,128.9l-32.7,34.3c2.7,2.6,5.4,5.3,7.9,8.2c2.3,2.7,4.5,5.4,6.5,8.2l38.5-27.5c-2.9-4-6.1-8-9.4-11.8
			C367.3,136.3,363.6,132.5,359.9,128.9z"/>
		<path class="st3" d="M338.2,111.7L311.8,151c3.1,2.1,6.2,4.3,9.2,6.8c2.7,2.2,5.3,4.6,7.8,7l33.3-33.6c-3.6-3.5-7.3-6.8-11.2-10.1
			C346.8,117.7,342.5,114.6,338.2,111.7z"/>
		<path class="st1" d="M313.9,98.3l-19.4,43.2c3.5,1.5,6.9,3.2,10.2,5.1c3.1,1.7,6,3.6,8.9,5.6l27.2-38.8c-4.1-2.8-8.4-5.5-12.8-8
			C323.4,102.8,318.7,100.5,313.9,98.3z"/>
		<path class="st3" d="M287.8,89.3l-11.9,45.8c3.7,0.9,7.3,2,10.9,3.3c3.3,1.2,6.5,2.6,9.7,4l20.3-42.8c-4.5-2.1-9.2-4-14-5.8
			C297.9,92.1,292.8,90.6,287.8,89.3z"/>
		<path class="st1" d="M260.5,84.8l-4,47.2c3.8,0.3,7.5,0.8,11.3,1.4c3.5,0.6,6.9,1.4,10.2,2.3l12.8-45.6c-4.8-1.3-9.7-2.4-14.7-3.3
			C270.9,85.8,265.7,85.2,260.5,84.8z"/>
		<path class="st7" d="M229.7,85.2l4.9,47.1c3.8-0.4,7.6-0.7,11.4-0.7c3.5,0,7,0.1,10.5,0.4l4-47.2c-5-0.4-10-0.6-15.1-0.5
			C240.1,84.3,234.9,84.6,229.7,85.2z"/>
		<path class="st8" d="M118.5,147.1C62.5,218,74.6,321,145.5,377s173.9,43.9,229.9-27s43.9-173.9-27-229.9
			C277.4,64.1,174.5,76.2,118.5,147.1z M338,320.2c-39.6,50.3-112.5,58.9-162.7,19.1s-58.7-112.8-19.1-163.2s112.5-58.9,162.7-19.1
			l0,0C369.1,196.7,377.6,269.8,338,320.2z"/>
		<circle class="st9" cx="247.3" cy="248.4" r="162.2"/>
	</g>
</g>
</svg>
