<svg xmlns="http://www.w3.org/2000/svg" xmlns:xlink="http://www.w3.org/1999/xlink" viewBox="0 0 494.58 494.58"><defs><style>.cls-1{isolation:isolate;}.cls-2{fill:url(#Degradado_sin_nombre_39);}.cls-3{fill:#dd375e;}.cls-4{fill:#046633;}.cls-5{fill:#393d62;}.cls-6{fill:#71c758;}.cls-7{font-size:28.31px;}.cls-10,.cls-11,.cls-12,.cls-13,.cls-14,.cls-15,.cls-16,.cls-17,.cls-18,.cls-19,.cls-20,.cls-21,.cls-22,.cls-23,.cls-24,.cls-25,.cls-26,.cls-27,.cls-28,.cls-29,.cls-30,.cls-31,.cls-32,.cls-33,.cls-34,.cls-35,.cls-36,.cls-37,.cls-38,.cls-39,.cls-40,.cls-7,.cls-8,.cls-9{fill:#fff;font-family:BebasNeue, Bebas Neue;}.cls-8{font-size:28.31px;}.cls-9{font-size:28.31px;}.cls-10{font-size:28.31px;}.cls-11{font-size:28.31px;}.cls-12{font-size:28.31px;}.cls-13{font-size:28.31px;}.cls-14{font-size:28.31px;}.cls-15{font-size:28.31px;}.cls-16{font-size:28.31px;}.cls-17{font-size:28.31px;}.cls-18{font-size:28.31px;}.cls-19{font-size:28.31px;}.cls-20{font-size:28.31px;}.cls-21{font-size:28.31px;}.cls-22{font-size:28.31px;}.cls-23{font-size:28.31px;}.cls-24{font-size:28.31px;}.cls-25{font-size:28.31px;}.cls-26{font-size:28.31px;}.cls-27{font-size:28.31px;}.cls-28{font-size:28.31px;}.cls-29{font-size:28.31px;}.cls-30{font-size:28.31px;}.cls-31{font-size:28.31px;}.cls-32{font-size:28.31px;}.cls-33{font-size:28.31px;}.cls-34{font-size:28.31px;}.cls-35{font-size:28.31px;}.cls-36{font-size:28.31px;}.cls-37{font-size:28.31px;}.cls-38{font-size:28.31px;}.cls-39{font-size:28.31px;}.cls-40{font-size:28.31px;}.cls-41{fill:#02982e;}.cls-42{mix-blend-mode:multiply;fill:url(#Unbenannter_Verlauf_54);}.cls-43{fill:none;}.cls-44{fill:#231a58;opacity:0.4;}</style><radialGradient id="Degradado_sin_nombre_39" cx="232.68" cy="248.75" r="247.3" gradientTransform="matrix(0.71, 0.71, -0.71, 0.71, 258.67, -92.93)" gradientUnits="userSpaceOnUse"><stop offset="0.04" stop-color="#231a58"/><stop offset="0.71" stop-color="#231a58"/><stop offset="0.81" stop-color="#231a58"/><stop offset="1" stop-color="#2b1a58"/></radialGradient><radialGradient id="Unbenannter_Verlauf_54" cx="539.73" cy="149.9" r="163.69" gradientTransform="translate(-205.27 579.21) rotate(-51.69)" gradientUnits="userSpaceOnUse"><stop offset="0.89" stop-color="#fff" stop-opacity="0"/><stop offset="0.91" stop-color="#c1b6b4" stop-opacity="0.18"/><stop offset="0.96" stop-color="#553530" stop-opacity="0.5"/><stop offset="1" stop-color="#2f0802" stop-opacity="0.62"/></radialGradient></defs><g class="cls-1"><g id="OBJECTS"><ellipse class="cls-2" cx="247.29" cy="247.29" rx="247.43" ry="247.15" transform="translate(-102.43 247.29) rotate(-45)"/><path class="cls-3" d="M244.58,17.65c-127.17,1.58-229,106-227.39,233.14s106,229,233.15,227.4,229-106,227.39-233.15S371.76,16.06,244.58,17.65Zm4.93,393.94A163.69,163.69,0,1,1,411.13,245.87,163.68,163.68,0,0,1,249.51,411.59Z"/><path class="cls-4" d="M361.75,130.74l46.5-47.68A228.19,228.19,0,0,0,244.58,17.65l.84,66.59A163,163,0,0,1,361.75,130.74Z"/><path class="cls-5" d="M184.25,26.47l18,64.14c5.1-1.46,10.32-2.7,15.65-3.68,4.89-.9,9.77-1.53,14.63-2l-5.64-66.4c-7,.64-14,1.58-21,2.87C198.48,22.77,191.29,24.47,184.25,26.47Z"/><path class="cls-3" d="M147.84,40.29l28.52,60.19c4.79-2.3,9.72-4.4,14.81-6.26,4.67-1.71,9.37-3.16,14.09-4.42L188.51,25.3c-6.78,1.81-13.53,3.92-20.25,6.38C161.25,34.24,154.44,37.13,147.84,40.29Z"/><path class="cls-5" d="M114.28,60l38.26,54.53c4.33-3.07,8.83-6,13.53-8.67,4.32-2.47,8.71-4.69,13.15-6.73L151.85,38.42c-6.38,2.92-12.69,6.13-18.89,9.69C126.48,51.82,120.26,55.82,114.28,60Z"/><path class="cls-3" d="M84.53,85.17l46.9,47.3q5.63-5.64,11.88-10.83c3.84-3.16,7.79-6.09,11.82-8.85L117.92,57.52c-5.8,4-11.47,8.19-17,12.74Q92.29,77.39,84.53,85.17Z"/><path class="cls-5" d="M59.44,115l54.19,38.72c3.07-4.33,6.35-8.57,9.89-12.67,3.25-3.77,6.66-7.32,10.16-10.72l-46-48.21q-7.57,7.31-14.6,15.42Q65.77,106,59.44,115Z"/><path class="cls-3" d="M39.72,148.53l60,29c2.29-4.79,4.81-9.52,7.61-14.16,2.57-4.26,5.33-8.34,8.21-12.28L62,111.36C57.88,117,53.93,122.89,50.24,129Q44.45,138.62,39.72,148.53Z"/><path class="cls-5" d="M25.94,185l64,18.53c1.45-5.11,3.14-10.2,5.11-15.25,1.82-4.63,3.85-9.11,6-13.48l-59.4-30.19c-3.14,6.27-6,12.73-8.65,19.39Q28.94,174.38,25.94,185Z"/><path class="cls-3" d="M18.5,223.17l66.19,7.48c.57-5.28,1.38-10.57,2.48-15.88,1-4.87,2.25-9.63,3.66-14.31L27.2,180.71c-2,6.71-3.81,13.57-5.26,20.57C20.43,208.59,19.3,215.9,18.5,223.17Z"/><path class="cls-5" d="M17.61,262.11l66.5-3.78c-.33-5.3-.42-10.66-.24-16.08.18-5,.61-9.87,1.21-14.72L19,218.78q-1.32,10.44-1.71,21.16Q16.92,251.15,17.61,262.11Z"/><path class="cls-3" d="M23.28,300.63,88.2,285.7C87,280.53,86,275.26,85.26,269.89c-.67-4.93-1.07-9.83-1.3-14.71l-66.58,2.51c.31,7,.92,14.06,1.88,21.15Q20.76,289.94,23.28,300.63Z"/><path class="cls-5" d="M35.37,337.65,96.84,312c-2.07-4.89-3.94-9.91-5.56-15.08-1.49-4.75-2.71-9.51-3.75-14.28L22.32,296.31q2.22,10.29,5.41,20.53Q31.08,327.54,35.37,337.65Z"/><path class="cls-3" d="M53.52,372.1l56.27-35.65q-4.31-6.69-8-13.93c-2.27-4.42-4.28-8.92-6.11-13.44l-62,24.48c2.62,6.5,5.53,13,8.79,19.32Q47.6,362.85,53.52,372.1Z"/><path class="cls-5" d="M77.22,403l49.46-44.62q-5.37-5.88-10.26-12.38c-3-4-5.72-8.07-8.28-12.22l-57,34.57c3.68,6,7.64,11.84,11.93,17.57Q69.8,394.89,77.22,403Z"/><path class="cls-3" d="M105.78,429.47,147,377.16c-4.19-3.27-8.27-6.75-12.2-10.48-3.61-3.42-7-7-10.23-10.65L74.27,399.7Q81.22,407.61,89,415,97.11,422.72,105.78,429.47Z"/><path class="cls-5" d="M138.4,450.75l31.83-58.52c-4.68-2.51-9.29-5.25-13.79-8.27-4.13-2.76-8.07-5.71-11.87-8.78l-42.25,51.53q8.18,6.63,17.08,12.61Q128.72,445.55,138.4,450.75Z"/><path class="cls-3" d="M174.13,466.22l21.52-63c-5-1.68-10-3.61-15-5.83-4.54-2-8.92-4.27-13.18-6.65l-33,57.91c6.12,3.43,12.43,6.63,19,9.55C160.3,461.21,167.19,463.88,174.13,466.22Z"/><path class="cls-5" d="M212,475.46l10.59-65.77c-5.25-.81-10.5-1.87-15.75-3.22-4.82-1.23-9.52-2.71-14.12-4.33L170,464.77c6.61,2.35,13.37,4.44,20.3,6.22Q201.11,473.77,212,475.46Z"/><path class="cls-3" d="M250.81,478.19l-.65-66.61c-5.31.08-10.67-.08-16.07-.52-5-.41-9.83-1.07-14.64-1.9L207.6,474.73c6.91,1.2,13.93,2.12,21.05,2.71C236.1,478.05,243.49,478.28,250.81,478.19Z"/><path class="cls-5" d="M289.56,474.33,277.7,408.78q-7.83,1.47-15.93,2.2c-4.95.43-9.87.6-14.75.59l-.64,66.63q10.53,0,21.21-.87Q278.77,476.34,289.56,474.33Z"/><path class="cls-3" d="M327.1,464l-22.73-62.61c-5,1.84-10.09,3.47-15.33,4.84-4.81,1.27-9.63,2.27-14.44,3.08l10.6,65.78c6.92-1.16,13.84-2.62,20.76-4.44C313.18,468.76,320.23,466.52,327.1,464Z"/><path class="cls-5" d="M362.37,447.49l-33-57.88q-6.89,4-14.29,7.35c-4.53,2.06-9.11,3.86-13.72,5.47l21.53,63.06c6.63-2.31,13.21-4.92,19.72-7.88C349.45,454.53,356,451.14,362.37,447.49Z"/><path class="cls-3" d="M394.35,425.28l-42.23-51.51q-6.14,5.09-12.85,9.66c-4.12,2.79-8.34,5.34-12.6,7.7l31.84,58.53q9.21-5.09,18.11-11.08Q385.91,432.29,394.35,425.28Z"/><path class="cls-5" d="M422.14,398l-50.32-43.65c-3.45,4-7.12,7.94-11,11.69-3.59,3.44-7.32,6.66-11.13,9.71l41.26,52.32q8.22-6.56,16-14Q415,406.34,422.14,398Z"/><path class="cls-3" d="M444.93,366.42,388,331.86q-4.1,6.84-8.91,13.39c-3,4-6.09,7.79-9.33,11.44l49.48,44.63q7-7.86,13.4-16.47Q439.28,375.83,444.93,366.42Z"/><path class="cls-5" d="M462.07,331.45l-62-24.46c-1.92,4.95-4.08,9.85-6.53,14.69-2.24,4.44-4.68,8.71-7.26,12.85l56.29,35.66q5.58-8.93,10.43-18.5Q458.1,341.7,462.07,331.45Z"/><path class="cls-3" d="M473.08,294.1l-65.2-13.68c-1.06,5.21-2.36,10.4-4,15.58-1.46,4.76-3.15,9.38-5,13.9l61.49,25.66c2.66-6.49,5.07-13.15,7.17-20Q470.88,304.86,473.08,294.1Z"/><path class="cls-5" d="M477.63,255.42l-66.56-2.49c-.17,5.31-.58,10.65-1.28,16-.64,4.93-1.53,9.77-2.58,14.53l64.93,14.93c1.53-6.84,2.78-13.81,3.7-20.9C476.8,270.11,477.38,262.74,477.63,255.42Z"/><path class="cls-3" d="M475.61,216.54l-66,8.75c.73,5.26,1.22,10.6,1.44,16,.2,5,.14,9.89-.09,14.77l66.52,3.77c.35-7,.41-14.08.12-21.23C477.26,231.15,476.59,223.79,475.61,216.54Z"/><path class="cls-5" d="M467.06,178.54,403.44,198.3q2.42,7.59,4.12,15.54c1,4.87,1.81,9.73,2.39,14.57l66.21-7.49q-1.25-10.44-3.45-20.94C471.15,192.67,469.25,185.53,467.06,178.54Z"/><path class="cls-3" d="M452.23,142.54l-59.38,30.19c2.43,4.72,4.68,9.59,6.68,14.62,1.84,4.63,3.42,9.29,4.81,14l64-18.53q-3-10.09-6.93-20.07Q457.26,152.3,452.23,142.54Z"/><path class="cls-5" d="M431.55,109.54,378.1,149.31c3.2,4.24,6.23,8.66,9,13.29,2.6,4.24,4.93,8.57,7.1,13l60-29.06c-3.1-6.29-6.49-12.51-10.22-18.61Q438.16,118.33,431.55,109.54Z"/><path class="cls-3" d="M405.6,80.5l-46,48.21c3.86,3.64,7.6,7.49,11.16,11.57,3.27,3.75,6.31,7.62,9.18,11.57l54.21-38.74Q428,104.58,421,96.48C416.05,90.86,410.91,85.54,405.6,80.5Z"/><path class="cls-5" d="M375.13,56.25l-37.2,55.26c4.42,2.94,8.75,6.11,12.95,9.53,3.86,3.15,7.5,6.45,11,9.86l46.9-47.32c-5-4.91-10.27-9.65-15.82-14.16Q384.28,62.34,375.13,56.25Z"/><path class="cls-3" d="M341,37.48,313.66,98.22c4.85,2.15,9.65,4.54,14.36,7.21,4.34,2.45,8.48,5.09,12.5,7.87l38.27-54.55q-8.66-6-18-11.3Q351,41.95,341,37.48Z"/><path class="cls-5" d="M304.22,24.73,287.49,89.21c5.14,1.3,10.28,2.85,15.38,4.68,4.68,1.69,9.21,3.59,13.64,5.65L345,39.32c-6.35-3-12.89-5.68-19.62-8.1Q314.87,27.43,304.22,24.73Z"/><path class="cls-3" d="M265.8,18.36l-5.63,66.37c5.3.42,10.62,1.08,15.95,2,4.9.87,9.69,2,14.4,3.27l18-64.16q-10.14-2.79-20.71-4.68Q276.76,19.22,265.8,18.36Z"/><path class="cls-6" d="M222.46,19l6.91,66.25c5.28-.58,10.63-.93,16-1,5-.06,9.89.14,14.75.51l5.63-66.39c-7-.55-14.06-.8-21.22-.71C237.12,17.74,229.74,18.2,222.46,19Z"/><text class="cls-7" transform="matrix(1, -0.01, 0.01, 1, 238.78, 56.34)">0</text><text class="cls-8" transform="matrix(0.98, -0.18, 0.18, 0.98, 200.6, 62.48)">26</text><text class="cls-9" transform="matrix(0.94, -0.34, 0.34, 0.94, 175.85, 71.19)">3</text><text class="cls-10" transform="matrix(0.87, -0.5, 0.5, 0.87, 143.54, 87.41)">35</text><text class="cls-11" transform="matrix(0.77, -0.64, 0.64, 0.77, 117.96, 107.16)">12</text><text class="cls-12" transform="matrix(0.65, -0.76, 0.76, 0.65, 95.98, 130.6)">28</text><text class="cls-13" transform="matrix(0.52, -0.86, 0.86, 0.52, 81.07, 155.61)">7</text><text class="cls-14" transform="matrix(0.36, -0.93, 0.93, 0.36, 65.25, 186.87)">29</text><text class="cls-15" transform="matrix(0.2, -0.98, 0.98, 0.2, 57.05, 219.86)">18</text><text class="cls-16" transform="matrix(0.03, -1, 1, 0.03, 55.58, 250.53)">22</text><text class="cls-17" transform="matrix(-0.13, -0.99, 0.99, -0.13, 56.82, 278.45)">9</text><text class="cls-18" transform="matrix(-0.3, -0.95, 0.95, -0.3, 67.05, 313.69)">31</text><text class="cls-19" transform="matrix(-0.46, -0.89, 0.89, -0.46, 80.59, 343.89)">14</text><text class="cls-20" transform="matrix(-0.6, -0.8, 0.8, -0.6, 98.92, 368.92)">20</text><text class="cls-21" transform="matrix(-0.73, -0.69, 0.69, -0.73, 116.97, 389.87)">1</text><text class="cls-22" transform="matrix(-0.83, -0.56, 0.56, -0.83, 147.45, 410.73)">33</text><text class="cls-23" transform="matrix(-0.91, -0.41, 0.41, -0.91, 178.38, 426.67)">16</text><text class="cls-7" transform="matrix(-0.97, -0.25, 0.25, -0.97, 207.17, 434.58)">24</text><text class="cls-24" transform="matrix(-1, -0.08, 0.08, -1, 234.02, 438.4)">5</text><text class="cls-25" transform="matrix(-1, 0.09, -0.09, -1, 273.59, 436.64)">10</text><text class="cls-26" transform="matrix(-0.97, 0.25, -0.25, -0.97, 302.77, 429.26)">23</text><text class="cls-27" transform="matrix(-0.91, 0.41, -0.41, -0.91, 328.51, 418.93)">8</text><text class="cls-28" transform="matrix(-0.83, 0.56, -0.56, -0.83, 359.76, 400.16)">30</text><text class="cls-29" transform="matrix(-0.72, 0.69, -0.69, -0.72, 384.07, 378.85)">11</text><text class="cls-30" transform="matrix(-0.59, 0.8, -0.8, -0.59, 404.06, 352.74)">36</text><text class="cls-31" transform="matrix(-0.45, 0.89, -0.89, -0.45, 419.5, 325.66)">13</text><text class="cls-28" transform="matrix(-0.29, 0.96, -0.96, -0.29, 430.01, 295.16)">27</text><text class="cls-32" transform="matrix(-0.13, 0.99, -0.99, -0.13, 435.72, 266.17)">6</text><text class="cls-33" transform="matrix(0.04, 1, -1, 0.04, 435.24, 230.17)">34</text><text class="cls-34" transform="matrix(0.21, 0.98, -0.98, 0.21, 429.94, 199.53)">17</text><text class="cls-29" transform="matrix(0.37, 0.93, -0.93, 0.37, 418.52, 167.87)">25</text><text class="cls-35" transform="matrix(0.52, 0.85, -0.85, 0.52, 405.36, 143.04)">2</text><text class="cls-36" transform="matrix(0.66, 0.75, -0.75, 0.66, 383.04, 116.27)">21</text><text class="cls-37" transform="matrix(0.78, 0.63, -0.63, 0.78, 361.68, 96.04)">4</text><text class="cls-38" transform="matrix(0.87, 0.49, -0.49, 0.87, 329.2, 76.92)">19</text><text class="cls-39" transform="matrix(0.94, 0.34, -0.34, 0.94, 300.24, 65.5)">15</text><text class="cls-40" transform="matrix(0.98, 0.18, -0.18, 0.98, 267.95, 59.13)">32</text><path class="cls-3" d="M245.41,84.24A163.69,163.69,0,1,0,411.13,245.86,163.69,163.69,0,0,0,245.41,84.24Zm3.51,280A116.34,116.34,0,1,1,363.8,246.46,116.33,116.33,0,0,1,248.92,364.25Z"/><path class="cls-4" d="M328.69,164.62l33.05-33.89A162.23,162.23,0,0,0,245.41,84.24l.59,47.34A115.92,115.92,0,0,1,328.69,164.62Z"/><path class="cls-5" d="M202.52,90.52l12.78,45.59q5.43-1.56,11.12-2.62c3.48-.64,7-1.09,10.4-1.41l-4-47.19c-5,.45-9.95,1.12-14.95,2C212.64,87.89,207.52,89.1,202.52,90.52Z"/><path class="cls-3" d="M176.64,100.34l20.28,42.79q5.1-2.46,10.52-4.46c3.32-1.21,6.66-2.24,10-3.14l-11.9-45.84q-7.23,1.92-14.39,4.53Q183.68,97,176.64,100.34Z"/><path class="cls-5" d="M152.79,114.39,180,153.14c3.08-2.18,6.28-4.25,9.63-6.16,3.06-1.76,6.19-3.34,9.34-4.79L179.49,99c-4.53,2.08-9,4.37-13.43,6.89Q159.16,109.86,152.79,114.39Z"/><path class="cls-3" d="M131.64,132.25,165,165.87a113.06,113.06,0,0,1,8.45-7.7c2.72-2.25,5.53-4.33,8.4-6.29l-26.46-39.29q-6.18,4.22-12.07,9.06Q137.17,126.72,131.64,132.25Z"/><path class="cls-5" d="M113.81,153.41l38.52,27.53q3.27-4.63,7-9c2.31-2.68,4.73-5.21,7.22-7.62l-32.69-34.26q-5.38,5.19-10.38,10.95C120.05,145,116.82,149.17,113.81,153.41Z"/><path class="cls-3" d="M99.8,177.28l42.61,20.64c1.62-3.4,3.42-6.77,5.41-10.06,1.82-3,3.78-5.93,5.83-8.73l-38-28.26q-4.43,6-8.38,12.55Q103.16,170.23,99.8,177.28Z"/><path class="cls-5" d="M90,203.17l45.48,13.17c1-3.63,2.23-7.25,3.63-10.84,1.29-3.29,2.74-6.47,4.28-9.58l-42.22-21.46c-2.23,4.46-4.29,9-6.14,13.78C93.1,193.19,91.44,198.17,90,203.17Z"/><path class="cls-3" d="M84.72,230.34l47.05,5.31q.6-5.62,1.75-11.29c.72-3.46,1.61-6.84,2.61-10.16l-45.23-14c-1.45,4.77-2.71,9.64-3.74,14.62Q85.56,222.58,84.72,230.34Z"/><path class="cls-5" d="M84.08,258l47.27-2.69c-.23-3.76-.3-7.57-.16-11.42.12-3.54.42-7,.85-10.46l-46.95-6.22c-.62,4.95-1,10-1.22,15C83.69,247.57,83.77,252.82,84.08,258Z"/><path class="cls-3" d="M88.12,285.4l46.14-10.62q-1.31-5.5-2.09-11.23c-.47-3.51-.76-7-.92-10.46l-47.33,1.78c.22,5,.65,10,1.34,15C86,275.17,86.94,280.33,88.12,285.4Z"/><path class="cls-5" d="M96.71,311.71l43.7-18.24c-1.48-3.48-2.81-7.05-4-10.72-1.06-3.38-1.93-6.76-2.67-10.15l-46.35,9.73c1.06,4.87,2.33,9.74,3.85,14.59Q93.67,304.52,96.71,311.71Z"/><path class="cls-3" d="M109.62,336.19l40-25.34a114.23,114.23,0,0,1-5.7-9.9c-1.62-3.14-3-6.34-4.34-9.55l-44,17.4c1.86,4.62,3.93,9.21,6.25,13.73C104.19,327.26,106.82,331.81,109.62,336.19Z"/><path class="cls-5" d="M126.46,358.16l35.15-31.72c-2.54-2.79-5-5.71-7.29-8.8-2.12-2.83-4.06-5.73-5.88-8.69L108,333.53q3.92,6.36,8.48,12.48Q121.2,352.39,126.46,358.16Z"/><path class="cls-3" d="M146.76,377l29.31-37.19c-3-2.32-5.87-4.79-8.67-7.44-2.56-2.43-5-5-7.27-7.57l-35.76,31q4.94,5.63,10.46,10.88C138.68,370.34,142.67,373.76,146.76,377Z"/><path class="cls-5" d="M170,392.09l22.62-41.59c-3.32-1.79-6.6-3.74-9.8-5.88-2.94-2-5.74-4.06-8.44-6.24l-30,36.63q5.81,4.71,12.14,9Q163.07,388.4,170,392.09Z"/><path class="cls-3" d="M195.35,403.09l15.29-44.81c-3.58-1.2-7.13-2.57-10.65-4.14-3.23-1.45-6.34-3-9.37-4.73l-23.43,41.16q6.52,3.66,13.48,6.79Q187.95,400.6,195.35,403.09Z"/><path class="cls-5" d="M222.24,409.65l7.52-46.74q-5.59-.87-11.19-2.29c-3.43-.88-6.77-1.93-10-3.08l-16.15,44.52q7.05,2.51,14.43,4.42Q214.52,408.45,222.24,409.65Z"/><path class="cls-3" d="M249.85,411.59l-.46-47.35c-3.78.06-7.58-.05-11.42-.37-3.53-.28-7-.75-10.41-1.34l-8.42,46.6q7.37,1.29,15,1.93C239.39,411.49,244.65,411.66,249.85,411.59Z"/><path class="cls-5" d="M277.39,408.85,269,362.26c-3.71.69-7.48,1.22-11.32,1.56-3.52.31-7,.43-10.49.42l-.45,47.36q7.49,0,15.08-.62C267.07,410.51,272.27,409.79,277.39,408.85Z"/><path class="cls-3" d="M304.08,401.5,287.92,357a114.24,114.24,0,0,1-10.9,3.44c-3.42.9-6.84,1.61-10.26,2.19l7.53,46.76c4.92-.83,9.84-1.87,14.76-3.16Q296.76,404.21,304.08,401.5Z"/><path class="cls-5" d="M329.15,389.77l-23.43-41.15q-4.91,2.83-10.16,5.23c-3.22,1.47-6.48,2.74-9.75,3.89l15.31,44.82q7-2.46,14-5.6C320,394.77,324.63,392.36,329.15,389.77Z"/><path class="cls-3" d="M351.88,374l-30-36.61c-2.9,2.41-5.94,4.71-9.13,6.87-2.93,2-5.92,3.79-9,5.47l22.64,41.6q6.56-3.62,12.88-7.88Q345.87,379,351.88,374Z"/><path class="cls-5" d="M371.62,354.58l-35.76-31c-2.46,2.87-5.06,5.65-7.84,8.31-2.56,2.45-5.2,4.74-7.91,6.91L349.43,376c3.9-3.12,7.7-6.42,11.36-9.94C364.63,362.35,368.23,358.52,371.62,354.58Z"/><path class="cls-3" d="M387.82,332.14l-40.48-24.56c-1.94,3.24-4,6.41-6.33,9.51-2.1,2.84-4.33,5.54-6.63,8.14l35.17,31.71q5-5.58,9.52-11.7C382.23,341,385.14,336.59,387.82,332.14Z"/><path class="cls-5" d="M400,307.28,356,289.9c-1.36,3.51-2.9,7-4.63,10.44-1.6,3.16-3.34,6.19-5.17,9.14l40,25.33q4-6.33,7.42-13.14Q397.18,314.56,400,307.28Z"/><path class="cls-3" d="M407.83,280.73,361.49,271c-.76,3.7-1.69,7.4-2.82,11.08-1,3.38-2.24,6.66-3.55,9.88l43.71,18.23q2.84-6.92,5.1-14.2Q406.27,288.38,407.83,280.73Z"/><path class="cls-5" d="M411.06,253.24l-47.31-1.77c-.12,3.77-.41,7.57-.91,11.39-.45,3.51-1.08,6.95-1.83,10.34l46.15,10.61c1.09-4.87,2-9.82,2.63-14.87Q410.81,261.05,411.06,253.24Z"/><path class="cls-3" d="M409.62,225.6l-46.94,6.23q.78,5.61,1,11.38c.14,3.53.1,7-.07,10.5l47.29,2.67c.25-5,.29-10,.08-15.09C410.8,236,410.32,230.76,409.62,225.6Z"/><path class="cls-5" d="M403.54,198.6l-45.21,14q1.71,5.4,2.92,11.05c.74,3.46,1.29,6.91,1.71,10.36L410,228.72c-.6-4.95-1.4-9.92-2.46-14.89Q405.9,206,403.54,198.6Z"/><path class="cls-3" d="M393,173l-42.2,21.46q2.59,5,4.75,10.39c1.3,3.29,2.43,6.6,3.42,9.93l45.49-13.18c-1.42-4.78-3-9.54-4.93-14.27Q396.58,179.95,393,173Z"/><path class="cls-5" d="M378.3,149.55l-38,28.27c2.28,3,4.43,6.16,6.44,9.45,1.84,3,3.5,6.09,5,9.2l42.62-20.65q-3.3-6.72-7.26-13.23Q383,155.8,378.3,149.55Z"/><path class="cls-3" d="M359.85,128.92l-32.67,34.26c2.74,2.59,5.39,5.32,7.93,8.23,2.32,2.66,4.48,5.41,6.52,8.22l38.53-27.54q-4.38-6.06-9.39-11.82Q365.54,134.27,359.85,128.92Z"/><path class="cls-5" d="M338.2,111.68,311.76,151c3.14,2.09,6.22,4.34,9.2,6.77,2.74,2.24,5.33,4.59,7.82,7l33.34-33.64q-5.36-5.23-11.25-10.06C346.76,117.68,342.52,114.57,338.2,111.68Z"/><path class="cls-3" d="M313.94,98.34,294.5,141.51c3.45,1.53,6.86,3.23,10.22,5.13,3.08,1.74,6,3.62,8.88,5.59l27.19-38.78q-6.14-4.26-12.78-8C323.39,102.81,318.7,100.46,313.94,98.34Z"/><path class="cls-5" d="M287.79,89.28,275.9,135.11a113.18,113.18,0,0,1,10.93,3.33c3.33,1.19,6.55,2.55,9.7,4l20.27-42.8q-6.78-3.16-13.95-5.76Q295.37,91.19,287.79,89.28Z"/><path class="cls-3" d="M260.49,84.75l-4,47.18q5.64.44,11.33,1.44c3.49.62,6.89,1.41,10.24,2.32l12.77-45.61c-4.81-1.31-9.71-2.43-14.72-3.32C270.88,85.83,265.67,85.17,260.49,84.75Z"/><path class="cls-41" d="M229.68,85.2l4.91,47.09c3.76-.41,7.56-.66,11.41-.71,3.54,0,7,.1,10.49.36l4-47.19c-5-.39-10-.57-15.08-.51C240.1,84.31,234.85,84.64,229.68,85.2Z"/><path class="cls-42" d="M118.47,147.15a163.68,163.68,0,1,0,229.91-27A163.69,163.69,0,0,0,118.47,147.15ZM357,335.59A140.32,140.32,0,1,1,333.9,138.5,140.33,140.33,0,0,1,357,335.59Z"/><circle class="cls-43" cx="247.6" cy="248.62" r="230.83" transform="translate(-103.28 247.9) rotate(-45)"/><circle class="cls-44" cx="247.29" cy="248.38" r="162.19"/></g></g></svg>